<?xml version="1.0" standalone="no"?>
<!DOCTYPE svg PUBLIC "-//W3C//DTD SVG 1.1//EN" "http://www.w3.org/Graphics/SVG/1.1/DTD/svg11.dtd" >
<svg xmlns="http://www.w3.org/2000/svg">
<metadata>Generated by IcoMoon</metadata>
<defs>
<font id="xueyuanyongfonts" horiz-adv-x="1024">
<font-face units-per-em="1024" ascent="960" descent="-64" />
<missing-glyph horiz-adv-x="1024" />
<glyph unicode="&#x20;" horiz-adv-x="512" d="" />
<glyph unicode="&#xe900;" glyph-name="icon-01" horiz-adv-x="960" d="M903.544 177.454l-132.9 75.942-28.478-47.464 132.9-75.942 28.478 47.464zM699.447 220.172v0l-28.478 14.24c-52.211-71.196-123.407-123.407-204.096-142.393-194.603-52.211-398.699 66.45-446.163 261.053-52.211 194.603 61.704 398.699 261.053 450.91 194.603 52.211 398.699-66.45 450.91-261.053 18.986-75.942 14.24-161.379-18.986-242.068l28.478-14.24 4.747 9.493c4.747 9.493 18.986 14.24 28.478 9.493l170.871-99.675c9.493-4.747 14.24-18.986 9.493-28.478l-47.464-85.435c-4.747-9.493-18.986-14.24-28.478-9.493l-170.871 99.675c-9.493 4.747-14.24 18.986-9.493 28.478v9.493zM656.73 523.942v0c-42.718 156.632-204.096 246.814-355.981 208.843-161.379-42.718-251.561-204.096-208.843-360.728s204.096-246.814 355.981-208.843c156.632 42.718 246.814 204.096 208.843 360.728v0z" />
<glyph unicode="&#xe901;" glyph-name="icon-02" d="M0 888.32c0 15.36 10.24 25.6 25.6 25.6 10.24 0 25.6-10.24 25.6-25.6v-732.16c0-15.36-10.24-25.6-25.6-25.6s-25.6 15.36-25.6 25.6v732.16zM880.64 888.32v0c0 15.36 10.24 25.6 25.6 25.6s25.6-10.24 25.6-25.6v-880.64c0-15.36-10.24-25.6-25.6-25.6s-25.6 10.24-25.6 25.6v880.64zM972.8 888.32v0c0 15.36 15.36 25.6 25.6 25.6 15.36 0 25.6-10.24 25.6-25.6v-732.16c0-15.36-10.24-25.6-25.6-25.6s-25.6 10.24-25.6 25.6v732.16zM599.040 888.32v0c0 15.36 10.24 25.6 25.6 25.6s25.6-10.24 25.6-25.6v-732.16c0-15.36-10.24-25.6-25.6-25.6s-25.6 10.24-25.6 25.6v732.16zM353.28 888.32v0c0 15.36 10.24 25.6 20.48 25.6 15.36 0 25.6-10.24 25.6-25.6v-732.16c0-15.36-10.24-25.6-25.6-25.6s-25.6 10.24-25.6 25.6v732.16h5.12zM220.16 888.32v0c0 15.36 10.24 25.6 25.6 25.6s25.6-10.24 25.6-25.6v-732.16c0-15.36-10.24-25.6-25.6-25.6s-25.6 15.36-25.6 25.6v732.16zM92.16 872.96v0c0 25.6 20.48 40.96 40.96 40.96s40.96-15.36 40.96-40.96v-844.8c0-20.48-20.48-40.96-40.96-40.96s-40.96 15.36-40.96 40.96v844.8zM747.52 872.96v0c0 25.6 20.48 40.96 40.96 40.96s40.96-15.36 40.96-40.96v-716.8c0-20.48-20.48-40.96-40.96-40.96s-40.96 20.48-40.96 40.96v716.8zM455.68 872.96v0c0 25.6 15.36 40.96 40.96 40.96 20.48 0 40.96-15.36 40.96-40.96v-716.8c0-20.48-20.48-40.96-40.96-40.96s-40.96 20.48-40.96 40.96v716.8z" />
<glyph unicode="&#xe902;" glyph-name="icon-03" d="M317.44 112.64c-15.36 0-25.6 10.24-25.6 25.6s10.24 25.6 25.6 25.6h558.080c15.36 0 25.6-10.24 25.6-25.6s-10.24-25.6-25.6-25.6h-558.080zM317.44 798.72v0c-15.36 0-25.6-10.24-25.6-25.6v0-163.84c0-15.36 10.24-25.6 25.6-25.6v0h552.96c15.36 0 25.6 10.24 25.6 25.6v163.84c0 15.36-10.24 25.6-25.6 25.6h-552.96zM337.92 629.76v0 117.76h512v-117.76h-512zM163.84 634.88v0h-87.040v-547.84c0-56.32 87.040-56.32 87.040 0v547.84zM122.88-35.84v0c-30.72 0-61.44 15.36-87.040 35.84v0c-20.48 20.48-35.84 51.2-35.84 87.040v588.8c0 20.48 15.36 40.96 40.96 40.96h122.88v174.080c0 20.48 20.48 40.96 40.96 40.96v0h778.24c25.6 0 40.96-20.48 40.96-40.96v0-803.84c0-30.72-15.36-61.44-35.84-87.040v0 0c-20.48-20.48-51.2-35.84-87.040-35.84h-778.24zM947.2 87.040v0 768h-701.44c0-256 0-512 0-768 0-15.36-5.12-30.72-10.24-40.96h665.6c10.24 0 20.48 5.12 30.72 10.24v0c10.24 10.24 15.36 20.48 15.36 30.72v0zM619.52 537.6v0 0h250.88c15.36 0 25.6-10.24 25.6-25.6v0-128c0-15.36-10.24-25.6-25.6-25.6v0h-250.88c-15.36 0-25.6 10.24-25.6 25.6v0 128c5.12 15.36 15.36 25.6 25.6 25.6v0zM849.92 486.4v0h-204.8v-76.8h204.8v76.8zM317.44 486.4v0c-15.36 0-25.6 10.24-25.6 25.6s10.24 25.6 25.6 25.6h230.4c15.36 0 25.6-10.24 25.6-25.6s-10.24-25.6-25.6-25.6h-230.4zM317.44 363.52v0c-15.36 0-25.6 10.24-25.6 25.6s10.24 25.6 25.6 25.6h230.4c15.36 0 25.6-10.24 25.6-25.6s-10.24-25.6-25.6-25.6h-230.4zM317.44 235.52v0c-15.36 0-25.6 10.24-25.6 25.6s10.24 25.6 25.6 25.6h558.080c15.36 0 25.6-10.24 25.6-25.6s-10.24-25.6-25.6-25.6h-558.080z" />
<glyph unicode="&#xe903;" glyph-name="icon-04" d="M977.92 865.28h-942.080c-20.48 0-40.96-15.36-40.96-40.96v-527.36c0-20.48 20.48-40.96 40.96-40.96h25.6c0 0 5.12 0 5.12 0 5.12-15.36 10.24-25.6 20.48-40.96 0-5.12 10.24-15.36 15.36-20.48-10.24 0-20.48-5.12-25.6-10.24-15.36-10.24-35.84-25.6-46.080-40.96-5.12-10.24-10.24-20.48-15.36-35.84v0c-5.12-10.24-5.12-20.48-5.12-35.84v-15.36c0-15.36 10.24-25.6 25.6-25.6h947.2c15.36 0 25.6 10.24 25.6 25.6v15.36c0 10.24 0 20.48-5.12 30.72 0 10.24-5.12 20.48-10.24 30.72s-10.24 20.48-15.36 25.6c-5.12 5.12-15.36 15.36-25.6 20.48v0c-10.24 5.12-20.48 10.24-30.72 15.36h-5.12c10.24 10.24 15.36 15.36 20.48 25.6s15.36 25.6 20.48 40.96h30.72c20.48 0 40.96 20.48 40.96 40.96v522.24c-10.24 25.6-25.6 40.96-51.2 40.96v0zM921.6 138.24v0 0c5.12-5.12 10.24-10.24 15.36-15.36v0c5.12-5.12 10.24-10.24 10.24-15.36 5.12-5.12 5.12-10.24 5.12-20.48v0c0-5.12 0-5.12 0-10.24h-896c0 5.12 0 10.24 0 15.36v0c0 5.12 5.12 15.36 10.24 20.48 5.12 10.24 15.36 20.48 25.6 25.6 15.36 10.24 30.72 10.24 40.96 10.24h143.36c10.24 0 20.48 0 25.6 0s15.36-5.12 20.48-10.24c5.12 0 5.12-5.12 10.24-5.12v0c0 0 5.12-5.12 5.12-5.12s0-5.12 5.12-5.12c10.24-10.24 25.6-10.24 30.72 0s15.36 15.36 25.6 20.48c10.24 5.12 25.6 5.12 35.84 5.12h143.36c10.24 0 15.36 0 20.48-5.12 5.12 0 15.36-5.12 20.48-10.24 5.12 0 5.12-5.12 10.24-5.12v0c0 0 5.12-5.12 5.12-5.12s0-5.12 5.12-5.12c10.24-10.24 25.6-10.24 30.72 0s15.36 15.36 25.6 20.48c15.36 10.24 25.6 10.24 35.84 10.24h143.36c5.12 0 15.36 0 20.48-5.12v0c10.24 0 20.48 0 25.6-5.12v0zM102.4 302.080v0c0 5.12 0 15.36 0 20.48s5.12 15.36 5.12 20.48c20.48 40.96 56.32 61.44 102.4 61.44 56.32 0 102.4-46.080 102.4-102.4 0-20.48-5.12-40.96-15.36-56.32s-25.6-30.72-46.080-40.96c-15.36-5.12-30.72-5.12-40.96-5.12-15.36 0-25.6 5.12-40.96 10.24v0c-20.48 10.24-35.84 20.48-46.080 40.96-15.36 10.24-20.48 30.72-20.48 51.2v0zM312.32 194.56v0c10.24 10.24 15.36 15.36 20.48 25.6 10.24 20.48 20.48 40.96 25.6 61.44 5.12-20.48 10.24-40.96 25.6-61.44 5.12-10.24 10.24-20.48 20.48-25.6-5.12 0-15.36-5.12-20.48-5.12-10.24-5.12-15.36-10.24-25.6-15.36 0 0-5.12 5.12-10.24 5.12-10.24 5.12-20.48 10.24-35.84 15.36v0 0zM404.48 302.080v0c0 5.12 0 15.36 0 20.48s5.12 15.36 5.12 20.48c15.36 40.96 56.32 61.44 97.28 61.44 56.32 0 102.4-46.080 102.4-102.4 0-20.48-5.12-40.96-15.36-56.32s-25.6-30.72-46.080-35.84v0c-15.36-10.24-25.6-10.24-40.96-10.24s-30.72 5.12-40.96 10.24c-20.48 10.24-35.84 20.48-46.080 40.96-10.24 10.24-15.36 30.72-15.36 51.2v0zM609.28 194.56v0c10.24 10.24 15.36 15.36 20.48 25.6 10.24 20.48 20.48 40.96 25.6 61.44 5.12-20.48 10.24-40.96 25.6-61.44 5.12-10.24 15.36-15.36 20.48-25.6-5.12 0-15.36-5.12-20.48-5.12-10.24-5.12-15.36-10.24-25.6-15.36-5.12 0-5.12 5.12-10.24 5.12-5.12 5.12-15.36 10.24-35.84 15.36v0 0zM701.44 302.080v0c0 5.12 0 15.36 0 20.48v0c10.24 46.080 51.2 81.92 102.4 81.92 56.32 0 102.4-46.080 102.4-102.4 0-20.48-5.12-40.96-15.36-56.32s-25.6-30.72-46.080-35.84v0c-10.24-10.24-25.6-10.24-40.96-10.24s-25.6 5.12-40.96 10.24c-20.48 10.24-35.84 20.48-46.080 40.96-10.24 10.24-15.36 30.72-15.36 51.2v0zM942.080 373.76v0c-5.12 15.36-15.36 25.6-25.6 35.84-30.72 25.6-66.56 46.080-112.64 46.080-61.44 0-117.76-35.84-138.24-92.16-5.12-10.24-5.12-20.48-10.24-30.72v0-5.12c-10.24 71.68-76.8 128-148.48 128-61.44 0-117.76-40.96-138.24-92.16-5.12-10.24-5.12-20.48-10.24-30.72v-5.12c-10.24 71.68-76.8 128-148.48 128-56.32 0-112.64-30.72-138.24-81.92v414.72h865.28v-414.72h5.12z" />
<glyph unicode="&#xe904;" glyph-name="icon-05" d="M506.88 867.84c-112.64 0-209.92-81.92-225.28-194.56-15.36 5.12-35.84 10.24-51.2 10.24-51.2 0-97.28-20.48-128-51.2-35.84-35.84-56.32-81.92-56.32-128s20.48-92.16 51.2-122.88l-40.96-46.080c-20.48-20.48-35.84-40.96-40.96-61.44v0c-10.24-25.6-15.36-51.2-15.36-76.8v-51.2c0-15.36 5.12-30.72 10.24-40.96 10.24-10.24 20.48-20.48 40.96-25.6 0 0 5.12 0 5.12 0h40.96v-15.36c0-20.48 15.36-35.84 35.84-35.84v0h762.88c20.48 0 30.72 15.36 30.72 35.84v15.36h40.96c0 0 5.12 0 5.12 0 15.36 5.12 30.72 10.24 40.96 25.6 10.24 10.24 10.24 25.6 10.24 40.96v51.2c0 25.6-5.12 51.2-15.36 76.8s-25.6 46.080-40.96 61.44l-51.2 46.080c30.72 30.72 51.2 76.8 51.2 122.88 0 51.2-20.48 97.28-51.2 128s-76.8 51.2-128 51.2c-20.48 0-35.84-5.12-56.32-10.24-15.36 112.64-112.64 194.56-225.28 194.56v0zM404.48 94.72v0 153.6c0 10.24-10.24 20.48-20.48 20.48s-20.48-10.24-20.48-20.48v-87.040h-87.040c0 0 0 5.12 0 5.12v71.68c0 25.6 5.12 46.080 15.36 71.68v0c5.12 10.24 10.24 25.6 20.48 35.84v0 0 0 0 0c5.12 10.24 10.24 15.36 20.48 20.48l71.68 71.68c66.56-35.84 143.36-35.84 209.92 0l71.68-71.68c5.12-5.12 10.24-15.36 15.36-20.48v0 0 0 0 0c10.24-10.24 15.36-25.6 20.48-35.84v0c10.24-20.48 15.36-46.080 15.36-71.68v-71.68c0-5.12 0-5.12 0-5.12h-87.040v87.040c0 10.24-10.24 20.48-20.48 20.48s-20.48-10.24-20.48-20.48v-153.6h-204.8zM348.16 642.56v0c0 87.040 71.68 158.72 158.72 158.72s158.72-71.68 158.72-158.72c0-215.040-317.44-215.040-317.44 0v0zM855.040 94.72v0h-97.28c10.24 5.12 20.48 10.24 30.72 25.6s15.36 30.72 15.36 46.080v71.68c0 30.72-5.12 56.32-15.36 81.92 25.6 0 51.2 5.12 76.8 15.36l51.2-51.2c15.36-15.36 20.48-25.6 30.72-40.96 5.12-15.36 10.24-30.72 10.24-51.2v-51.2h-56.32v61.44c0 10.24-10.24 20.48-20.48 20.48s-20.48-10.24-20.48-20.48v-107.52h-5.12zM732.16 601.6v0c5.12 5.12 10.24 10.24 20.48 10.24 10.24 5.12 20.48 5.12 35.84 5.12 30.72 0 61.44-15.36 81.92-35.84s35.84-51.2 35.84-81.92c0-30.72-15.36-61.44-35.84-81.92v0c-20.48-20.48-51.2-35.84-81.92-35.84-10.24 0-15.36 0-25.6 0-5.12 0-10.24 5.12-15.36 5.12-5.12 5.12-10.24 15.36-20.48 20.48v0l-61.44 66.56c30.72 30.72 51.2 66.56 61.44 107.52v0 0 0 0l5.12 20.48zM158.72 94.72v0 107.52c0 10.24-10.24 20.48-20.48 20.48s-20.48-10.24-20.48-20.48v-56.32h-56.32v51.2c0 15.36 5.12 35.84 10.24 51.2v0 0c5.12 15.36 15.36 30.72 30.72 40.96l51.2 51.2c20.48-10.24 46.080-15.36 76.8-15.36-10.24-25.6-15.36-56.32-15.36-81.92v-71.68c0-15.36 5.12-35.84 15.36-46.080 5.12-10.24 15.36-20.48 30.72-25.6h-102.4v-5.12zM281.6 601.6v0 0 0 0 0l5.12-15.36c10.24-40.96 30.72-76.8 61.44-107.52v0 0l-66.56-66.56c-5.12-5.12-10.24-10.24-15.36-20.48-5.12 0-10.24 0-15.36 0s-15.36 0-20.48 0c-35.84-5.12-61.44 10.24-81.92 30.72v0c-20.48 20.48-35.84 51.2-35.84 81.92s15.36 56.32 35.84 76.8c20.48 20.48 51.2 35.84 81.92 35.84 10.24 0 25.6 0 35.84-5.12 5.12 0 10.24-5.12 15.36-10.24v0z" />
<glyph unicode="&#xe905;" glyph-name="icon-06" d="M867.84 243.2v81.92h-337.92v-81.92h71.68c20.48 0 40.96-15.36 40.96-40.96v0-194.56c0-20.48-15.36-40.96-40.96-40.96v0h-189.44c-20.48 0-40.96 15.36-40.96 40.96v0 194.56c0 20.48 15.36 40.96 40.96 40.96v0h71.68v81.92h-327.68v-81.92h71.68c20.48 0 40.96-15.36 40.96-40.96v0-194.56c0-20.48-15.36-40.96-40.96-40.96v0h-189.44c-20.48 0-40.96 15.36-40.96 40.96v0 194.56c0 20.48 15.36 40.96 40.96 40.96v0h71.68v107.52c0 15.36 10.24 25.6 25.6 25.6h353.28v158.72h-138.24c-20.48 0-40.96 20.48-40.96 40.96v0 317.44c0 25.6 20.48 40.96 40.96 40.96v0h317.44c20.48 0 40.96-15.36 40.96-40.96v0-317.44c0-20.48-15.36-40.96-40.96-40.96v0h-133.12v-163.84h358.4c15.36 0 25.6-10.24 25.6-25.6v-107.52h66.56c20.48 0 40.96-15.36 40.96-40.96v0-194.56c0-20.48-15.36-40.96-40.96-40.96v0h-194.56c-20.48 0-40.96 15.36-40.96 40.96v0 194.56c0 20.48 15.36 40.96 40.96 40.96v0h76.8v5.12zM944.64 166.4v0h-112.64v-112.64h112.64v112.64zM192 166.4v0h-117.76v-112.64h112.64v112.64h5.12zM565.76 166.4v0h-112.64v-112.64h112.64v112.64zM627.2 857.6v0h-235.52v-240.64h240.64v240.64h-5.12z" />
<glyph unicode="&#xe906;" glyph-name="icon-07" d="M967.68 826.88c-30.72 35.84-76.8 56.32-133.12 56.32h-650.24c-51.2 0-97.28-20.48-133.12-56.32v0 0c-30.72-30.72-51.2-76.8-51.2-133.12v-491.52c0-51.2 20.48-97.28 51.2-133.12v0 0c35.84-35.84 81.92-56.32 133.12-56.32h650.24c51.2 0 97.28 20.48 128 51.2v0c35.84 35.84 56.32 81.92 56.32 133.12v496.64c5.12 56.32-15.36 102.4-51.2 133.12v0zM947.2 207.36v0c0-30.72-10.24-56.32-30.72-76.8v0c-20.48-20.48-46.080-30.72-76.8-30.72h-655.36c-30.72 0-56.32 10.24-76.8 30.72v0c-20.48 20.48-30.72 46.080-30.72 76.8v486.4c0 30.72 10.24 56.32 30.72 76.8s46.080 30.72 76.8 30.72h650.24c30.72 0 56.32-10.24 76.8-30.72s30.72-46.080 30.72-76.8v-486.4h5.12zM522.24 581.12v0l-189.44 112.64c-5.12 0-10.24 5.12-15.36 5.12-10.24 0-20.48-15.36-20.48-25.6v-445.44c0-5.12 0-5.12 5.12-10.24 5.12-10.24 20.48-15.36 30.72-10.24l194.56 112.64 189.44 107.52c5.12 0 10.24 5.12 10.24 10.24 5.12 10.24 0 25.6-10.24 30.72l-194.56 112.64zM501.76 360.96v0l-158.72-92.16v363.52l317.44-184.32-158.72-87.040z" />
<glyph unicode="&#xe907;" glyph-name="icon-08" d="M514.535 960c121.663 0 233.188-50.693 314.297-131.802 152.079-152.079 172.356-390.337 50.693-567.762-50.693-70.97-116.594-126.733-197.703-162.218l-141.941-147.010c-15.208-15.208-40.554-15.208-55.762 0v0 0l-141.941 141.941c-81.109 35.485-152.079 91.248-197.703 162.218-121.663 172.356-96.317 415.683 50.693 567.762 86.178 86.178 192.634 136.871 319.366 136.871v0zM514.535 742.020v0c60.832 0 116.594-25.347 157.149-65.901s65.901-96.317 65.901-157.149c0-60.832-25.347-116.594-65.901-157.149s-96.317-65.901-157.149-65.901c-60.832 0-116.594 25.347-157.149 65.901-40.554 35.485-65.901 91.248-65.901 152.079s25.347 116.594 65.901 157.149c40.554 45.624 96.317 70.97 157.149 70.97v0zM636.198 640.634v0c-30.416 30.416-76.040 50.693-126.733 50.693s-91.248-20.277-126.733-50.693c-30.416-30.416-50.693-76.040-50.693-126.733s20.277-91.248 50.693-126.733c30.416-30.416 76.040-50.693 126.733-50.693s91.248 20.277 126.733 50.693c30.416 30.416 50.693 76.040 50.693 126.733 5.069 50.693-15.208 96.317-50.693 126.733v0zM773.069 772.436v0c-65.901 65.901-157.149 106.455-258.535 106.455s-192.634-40.554-263.604-106.455c-121.663-121.663-141.941-319.366-40.554-466.376 40.554-60.832 101.386-106.455 167.287-136.871 5.069 0 10.139-5.069 15.208-10.139l121.663-121.663 121.663 121.663c5.069 5.069 10.139 5.069 15.208 10.139 70.97 25.347 126.733 76.040 172.356 136.871 91.248 147.010 76.040 344.713-50.693 466.376v0z" />
<glyph unicode="&#xe908;" glyph-name="icon-09" d="M486.653 4.436l-385.267 385.267c-45.624 40.554-70.97 86.178-86.178 141.941-15.208 50.693-15.208 101.386 5.069 157.149 15.208 45.624 45.624 91.248 81.109 126.733s81.109 60.832 126.733 76.040c55.762 15.208 111.525 15.208 162.218 5.069 40.554-15.208 86.178-40.554 121.663-70.97 40.554 30.416 81.109 55.762 126.733 65.901 50.693 15.208 106.455 15.208 162.218-5.069 45.624-15.208 91.248-40.554 126.733-76.040s60.832-76.040 76.040-126.733v0c15.208-55.762 20.277-106.455 5.069-157.149s-40.554-101.386-81.109-141.941v0l-385.267-385.267c-20.277-10.139-40.554-10.139-55.762 5.069v0 0zM512 734.416c-15.208 0-30.416 15.208-30.416 15.208v0c-35.485 35.485-76.040 55.762-116.594 65.901-35.485 10.139-76.040 10.139-116.594 0-35.485-15.208-70.97-35.485-96.317-60.832s-45.624-55.762-60.832-91.248c-10.139-40.554-10.139-76.040 0-111.525 10.139-40.554 30.416-76.040 60.832-106.455l359.921-359.921 354.851 354.851c30.416 30.416 50.693 65.901 65.901 106.455 10.139 35.485 10.139 76.040-5.069 111.525-10.139 40.554-30.416 70.97-55.762 96.317s-60.832 45.624-96.317 55.762c-40.554 15.208-81.109 15.208-116.594 5.069s-70.97-30.416-101.386-55.762c0 5.069-30.416-25.347-45.624-25.347z" />
<glyph unicode="&#xe909;" glyph-name="icon-10" d="M41.166 754.171c61.749-5.146 108.060 15.437 149.226 36.020 82.332 36.020 159.518 72.040 319.035-30.874 159.518 97.769 236.704 61.749 319.035 25.729 41.166-20.583 87.477-41.166 154.372-36.020 20.583 0 41.166-15.437 41.166-36.020v-632.925c0-20.583-15.437-41.166-41.166-41.166-82.332-5.146-138.935 20.583-190.392 41.166-66.894 30.874-128.643 56.603-262.432-36.020-15.437-10.291-30.874-10.291-41.166 0-138.935 92.623-195.538 61.749-262.432 36.020-51.457-25.729-108.060-46.312-190.392-41.166-20.583 0-36.020 20.583-36.020 41.166v0 632.925c0 20.583 15.437 41.166 41.166 41.166-5.146 0 0 0 0 0v0zM895.357 486.593v0c-25.729 5.146-51.457 20.583-77.186 30.874-66.894 30.874-123.497 56.603-226.412 15.437-10.291-5.146-15.437-20.583-15.437-30.874 5.146-10.291 20.583-15.437 30.874-15.437 87.477 36.020 133.789 10.291 190.392-15.437 25.729-10.291 51.457-25.729 82.332-30.874 15.437-5.146 25.729 5.146 30.874 15.437 5.146 15.437 0 30.874-15.437 30.874v0zM895.357 373.387v0c-25.729 5.146-51.457 20.583-77.186 30.874-66.894 30.874-123.497 56.603-226.412 15.437-10.291-5.146-15.437-20.583-15.437-30.874 10.291-20.583 20.583-25.729 36.020-20.583 87.477 36.020 133.789 10.291 190.392-15.437 25.729-10.291 51.457-25.729 82.332-30.874 15.437-5.146 25.729 5.146 30.874 15.437 0 15.437-5.146 30.874-20.583 36.020v0zM895.357 255.035v0c-25.729 5.146-51.457 20.583-77.186 30.874-66.894 30.874-123.497 56.603-226.412 15.437-10.291-5.146-15.437-20.583-15.437-30.874 5.146-10.291 20.583-20.583 30.874-15.437 87.477 36.020 133.789 10.291 190.392-15.437 25.729-10.291 51.457-25.729 82.332-30.874 15.437-5.146 25.729 5.146 30.874 15.437 5.146 15.437 0 25.729-15.437 30.874v0zM895.357 604.945v0c-25.729 5.146-51.457 15.437-77.186 30.874-66.894 30.874-123.497 56.603-226.412 15.437-10.291-5.146-15.437-20.583-15.437-30.874 5.146-10.291 20.583-15.437 30.874-15.437 87.477 36.020 133.789 10.291 190.392-15.437 25.729-10.291 51.457-25.729 82.332-30.874 15.437-5.146 25.729 5.146 30.874 15.437 5.146 15.437 0 25.729-15.437 30.874v0zM133.789 440.281v0c30.874 5.146 56.603 20.583 82.332 30.874 56.603 25.729 108.060 51.457 190.392 15.437 10.291-5.146 25.729 0 30.874 15.437 5.146 10.291 0 25.729-15.437 30.874-102.915 41.166-159.518 10.291-226.412-15.437-20.583-10.291-46.312-25.729-72.040-30.874-15.437 0-20.583-15.437-20.583-25.729 5.146-15.437 15.437-20.583 30.874-20.583v0zM133.789 327.075v0c30.874 10.291 56.603 20.583 82.332 30.874 56.603 25.729 108.060 46.312 190.392 10.291 10.291-5.146 25.729 0 30.874 15.437 5.146 10.291 0 25.729-15.437 30.874-102.915 41.166-164.663 15.437-226.412-15.437-20.583-10.291-46.312-20.583-72.040-25.729-15.437-5.146-20.583-20.583-20.583-30.874 5.146-10.291 15.437-20.583 30.874-15.437v0zM133.789 208.724v0c30.874 10.291 56.603 20.583 82.332 30.874 56.603 25.729 108.060 46.312 190.392 15.437 10.291-5.146 25.729 0 30.874 15.437 5.146 10.291 0 25.729-15.437 30.874-102.915 41.166-164.663 15.437-226.412-15.437-20.583-10.291-46.312-25.729-72.040-30.874-10.291-5.146-20.583-15.437-15.437-30.874 0-10.291 10.291-15.437 25.729-15.437v0zM133.789 558.633v0c30.874 10.291 56.603 20.583 82.332 30.874 56.603 25.729 108.060 46.312 190.392 10.291 10.291-5.146 25.729 0 30.874 15.437 5.146 10.291 0 25.729-15.437 30.874-102.915 41.166-164.663 15.437-226.412-15.437-20.583-10.291-46.312-20.583-72.040-25.729-15.437-5.146-20.583-15.437-20.583-30.874 5.146-10.291 15.437-20.583 30.874-15.437v0zM535.156 682.131v0-535.156c144.080 82.332 216.121 46.312 293.307 10.291 36.020-15.437 72.040-30.874 118.352-36.020v555.739c-61.749 0-108.060 20.583-149.226 41.166-66.894 25.729-128.643 56.603-262.432-36.020v0zM483.698 146.975v0 535.156c-133.789 92.623-195.538 61.749-262.432 36.020-41.166-20.583-87.477-41.166-149.226-41.166v-550.593c46.312 0 82.332 20.583 118.352 36.020 77.186 30.874 154.372 66.894 293.307-15.437v0z" />
<glyph unicode="&#xe90a;" glyph-name="icon-17" d="M3.213 889.575l63.998 63.998 953.574-953.574-63.998-63.998-953.574 953.574zM3.213 6.425l953.574 953.574 63.998-63.998-953.574-953.574-63.998 63.998z" />
<glyph unicode="&#xe90b;" glyph-name="icon-11" d="M512-64c-278.836 0-509.596 230.761-509.596 514.404s230.761 509.596 509.596 509.596 509.596-230.761 509.596-509.596-225.953-514.404-509.596-514.404zM512 897.502c-249.991 0-451.906-201.915-451.906-451.906s206.723-447.099 451.906-447.099 451.906 201.915 451.906 451.906-201.915 447.099-451.906 447.099zM454.31 181.183c-9.615 0-14.423 4.808-24.038 9.615l-254.798 254.798c-14.423 14.423-14.423 33.653 0 43.268s33.653 14.423 43.268 0l230.761-230.761 370.178 370.178c14.423 14.423 33.653 14.423 43.268 0s14.423-33.653 0-43.268l-384.601-394.216c-9.615-4.808-14.423-9.615-24.038-9.615z" />
<glyph unicode="&#xe90c;" glyph-name="icon-12" d="M512-64c-278.836 0-509.596 230.761-509.596 514.404s230.761 509.596 509.596 509.596 509.596-230.761 509.596-509.596-225.953-514.404-509.596-514.404zM512 897.502c-249.991 0-451.906-201.915-451.906-451.906s206.723-447.099 451.906-447.099 451.906 201.915 451.906 451.906-201.915 447.099-451.906 447.099zM564.883 455.211l192.3 192.3c4.808 4.808 9.615 14.423 9.615 24.038s-4.808 19.23-9.615 24.038c-14.423 14.423-38.46 14.423-52.883 0l-192.3-192.3-192.3 192.3c-14.423 14.423-38.46 14.423-52.883 0-4.808-4.808-4.808-14.423-4.808-24.038s4.808-19.23 9.615-24.038l192.3-192.3-192.3-192.3c-4.808-4.808-9.615-14.423-9.615-24.038s4.808-19.23 9.615-24.038 14.423-9.615 24.038-9.615 19.23 4.808 24.038 9.615l192.3 192.3 192.3-192.3c4.808-4.808 14.423-9.615 24.038-9.615s19.23 4.808 24.038 9.615 9.615 14.423 9.615 24.038-4.808 19.23-9.615 24.038l-187.493 192.3z" />
<glyph unicode="&#xe90d;" glyph-name="icon-13" d="M799.841 394.507c0 20.378 15.284 40.756 40.756 40.756 20.378 0 40.756-20.378 40.756-40.756v-382.090c0-20.378-15.284-40.756-40.756-40.756v0h-647.005c-20.378 0-40.756 15.284-40.756 40.756v0 382.090c0 20.378 15.284 40.756 40.756 40.756s40.756-20.378 40.756-40.756v-346.428h127.363v387.184c-5.095 15.284 5.095 25.473 20.378 25.473v0h270.010c15.284 0 25.473-10.189 25.473-25.473v0-387.184h127.363v346.428h-5.095zM402.468 48.080v0h224.159v361.711h-224.159v-361.711zM71.323 384.318v0c-15.284-15.284-40.756-15.284-56.040 0s-15.284 40.756 0 56.040l468.696 468.696c15.284 15.284 40.756 15.284 56.040 0v0l468.696-468.696c15.284-15.284 15.284-40.756 0-56.040s-40.756-15.284-56.040 0l-438.129 438.129-443.224-438.129z" />
<glyph unicode="&#xe90e;" glyph-name="icon-14" horiz-adv-x="928" d="M94.352 528.36v59.695c0 101.023 41.328 197.453 110.206 261.739v0c68.879 68.879 160.718 110.206 261.739 110.206s197.453-41.328 261.739-110.206v0c68.879-68.879 110.206-160.718 110.206-261.739v-59.695c9.184 0 22.96-4.592 32.143-4.592v0c9.184-4.592 22.96-9.184 27.552-18.368 9.184-9.184 13.776-18.368 18.368-27.552v0c4.592-9.184 4.592-22.96 4.592-32.143v-160.718c0-13.776-4.592-22.96-4.592-32.143v0c-4.592-9.184-9.184-18.368-18.368-27.552s-18.368-13.776-27.552-18.368h-4.592c-9.184-4.592-18.368-4.592-32.143-4.592h-13.776c-4.592-50.511-36.735-96.431-87.246-133.166s-114.798-64.287-192.861-73.471c-9.184-32.143-41.328-59.695-78.063-59.695-41.328 0-78.063 36.735-78.063 78.063s36.735 78.063 78.063 78.063c32.143 0 64.287-22.96 73.471-50.511 68.879 13.776 123.982 36.735 165.309 64.287 36.735 27.552 59.695 59.695 68.879 96.431h-13.776c-13.776 0-22.96 4.592-32.143 4.592v0c-9.184 4.592-22.96 9.184-27.552 18.368-13.776 18.368-27.552 36.735-27.552 64.287v151.534c0 13.776 4.592 22.96 4.592 32.143v0 0c4.592 9.184 9.184 18.368 18.368 27.552 13.776 13.776 36.735 22.96 59.695 27.552v41.328c-13.776 45.92-41.328 87.246-73.471 119.391-55.103 55.103-133.166 91.838-220.412 91.838-82.655 0-160.718-36.735-215.821-91.838-27.552-32.143-50.511-73.471-68.879-119.391v-41.328c9.184 0 22.96-4.592 32.143-4.592 9.184-9.184 22.96-13.776 27.552-22.96 9.184-9.184 13.776-18.368 18.368-27.552v0c4.592-9.184 4.592-22.96 4.592-32.143v-156.126c0-13.776-4.592-22.96-4.592-32.143v0c-4.592-9.184-9.184-18.368-18.368-27.552s-18.368-13.776-27.552-18.368h-4.592c-9.184-4.592-18.368-4.592-32.143-4.592h-73.471c-13.776 0-22.96 4.592-32.143 4.592v0c-9.184 4.592-22.96 9.184-27.552 18.368-18.368 9.184-27.552 32.143-27.552 59.695v156.126c0 13.776 4.592 22.96 4.592 32.143v0c4.592 9.184 9.184 18.368 18.368 27.552 18.368 18.368 41.328 27.552 64.287 27.552v0zM466.297 37.024v0c-18.368 0-32.143-13.776-32.143-32.143s13.776-32.143 32.143-32.143c18.368 0 32.143 13.776 32.143 32.143s-13.776 32.143-32.143 32.143v0zM131.087 450.297v0h-36.735c-4.592 0-4.592 0-4.592-4.592 0 0 0 0-4.592-4.592 0 0 0 0 0-4.592v-151.534c0 0 0-4.592 4.592-4.592 0 0 0 0 4.592 0 0 0 0 0 4.592 0h73.471c0 0 0 0 4.592 0v0c0 0 0 0 4.592 0 0 0 0 0 0 4.592 0 0 0 4.592 0 4.592v151.534c0 0 0 0 0 4.592v0c0 0 0 0 0 4.592 0 0-4.592 0-4.592 0v0c0 0 0 0-4.592 0h-41.328zM796.915 450.297v0h-36.735c-4.592 0-4.592 0-4.592-4.592 0 0 0 0 0-4.592 0 0 0 0 0-4.592v-151.534c0 0 0-4.592 4.592-4.592 0 0 0 0 4.592 0 0 0 0 0 4.592 0h73.471c0 0 0 0 4.592 0v0c0 0 0 0 4.592 0 0 0 0 0 0 4.592 0 0 0 4.592 0 4.592v151.534c0 0 0 0 0 4.592v0c0 0 0 0 0 4.592 0 0-4.592 0-4.592 0v0c0 0 0 0-4.592 0h-45.92zM732.628 707.443v0c-13.776 32.143-36.735 64.287-59.695 87.246v0c-50.511 55.103-123.982 87.246-206.637 87.246s-151.534-32.143-206.637-87.246c-22.96-27.552-45.92-55.103-59.695-87.246 4.592 4.592 9.184 9.184 13.776 18.368 64.287 59.695 156.126 101.023 252.557 101.023s188.269-41.328 252.557-105.614v0c4.592-4.592 9.184-9.184 13.776-13.776v0z" />
<glyph unicode="&#xe90f;" glyph-name="icon-15" d="M71.68 7.68c0-20.48-15.36-35.84-35.84-35.84-20.48-5.12-35.84 15.36-35.84 35.84 0 66.56 25.6 117.76 66.56 153.6 51.2 51.2 128 71.68 168.96 76.8 10.24 0 15.36 5.12 20.48 10.24s5.12 10.24 5.12 10.24c-35.84 30.72-51.2 66.56-66.56 102.4-5.12 15.36-10.24 30.72-15.36 35.84v0 0 0 0 0c-15.36 15.36-35.84 40.96-46.080 71.68-10.24 25.6-10.24 61.44 5.12 92.16-10.24 25.6-15.36 56.32-15.36 87.040v0c0 40.96 5.12 81.92 20.48 117.76v5.12c20.48 51.2 46.080 92.16 87.040 117.76s92.16 40.96 153.6 40.96c20.48 0 51.2 0 81.92-5.12s61.44-20.48 81.92-46.080c40.96 5.12 71.68-20.48 97.28-51.2 10.24-10.24 20.48-25.6 30.72-40.96 30.72 10.24 61.44 15.36 97.28 15.36 71.68 0 133.12-25.6 179.2-61.44 40.96-40.96 71.68-92.16 71.68-153.6 0-66.56-30.72-117.76-76.8-158.72s-107.52-61.44-179.2-61.44c-15.36 0-35.84 0-51.2 5.12-15.36 0-25.6 5.12-40.96 10.24l-51.2-35.84c-10.24-30.72-25.6-61.44-56.32-81.92 0-5.12 5.12-10.24 5.12-15.36 5.12-5.12 15.36-10.24 20.48-10.24 46.080-5.12 122.88-25.6 174.080-76.8 35.84-35.84 66.56-87.040 66.56-153.6 0-20.48-15.36-35.84-35.84-35.84s-35.84 15.36-35.84 35.84c0 46.080-20.48 76.8-40.96 102.4-40.96 35.84-92.16 56.32-128 56.32-25.6 5.12-51.2 15.36-66.56 30.72-25.6 15.36-51.2 92.16-15.36 112.64 25.6 15.36 40.96 51.2 51.2 76.8 5.12 15.36 10.24 25.6 20.48 40.96v5.12c-20.48 20.48-35.84 40.96-46.080 61.44-15.36 30.72-25.6 56.32-25.6 92.16 0 61.44 30.72 117.76 76.8 158.72 5.12 5.12 10.24 10.24 15.36 15.36-5.12 10.24-10.24 20.48-20.48 25.6-10.24 15.36-25.6 25.6-35.84 25.6-15.36 0-25.6 0-35.84 5.12-10.24 0-20.48 5.12-25.6 15.36v5.12c-5.12 5.12-20.48 10.24-35.84 15.36-25.6 5.12-51.2 5.12-66.56 5.12-46.080-5.12-81.92-10.24-112.64-30.72-25.6-20.48-46.080-46.080-56.32-81.92v-5.12c-10.24-25.6-15.36-56.32-15.36-92.16v0 0c0-25.6 5.12-51.2 10.24-76.8 5.12-5.12 5.12-15.36 5.12-25.6-5.12-20.48-20.48-20.48-10.24-51.2 5.12-15.36 20.48-35.84 30.72-40.96v0 0c15.36-15.36 25.6-35.84 35.84-61.44s25.6-61.44 51.2-76.8c10.24-5.12 20.48-15.36 20.48-30.72 0-30.72-5.12-56.32-30.72-81.92-15.36-15.36-40.96-30.72-66.56-30.72-30.72 0-87.040-20.48-128-56.32-25.6-30.72-46.080-66.56-46.080-107.52v0zM921.6 709.12v0c-35.84 30.72-92.16 51.2-148.48 51.2-61.44 0-112.64-20.48-148.48-51.2s-61.44-76.8-61.44-122.88c0-25.6 5.12-46.080 15.36-66.56s25.6-40.96 46.080-56.32c5.12-5.12 10.24-15.36 10.24-25.6l-20.48-46.080 46.080 30.72c5.12 5.12 15.36 5.12 20.48 5.12 15.36-5.12 25.6-10.24 40.96-10.24s30.72-5.12 46.080-5.12c61.44 0 112.64 20.48 148.48 51.2s61.44 76.8 61.44 122.88c0 46.080-20.48 92.16-56.32 122.88v0z" />
<glyph unicode="&#xe910;" glyph-name="icon-18" d="M1012.496 502.651c-11.506 28.764-40.269 51.775-80.539 57.528-5.753 0-17.259 0-23.012 0-40.269 0-80.539 0-115.056 0-23.012 0-40.269 0-63.281 0h-23.012c0 5.753 0 11.506 0 17.259 0 17.259 5.753 28.764 5.753 46.022 0 11.506 0 17.259 5.753 28.764 5.753 23.012 5.753 51.775 0 74.787-11.506 46.022-28.764 86.292-46.022 132.314s-57.528 63.281-109.303 51.775c-34.516-11.506-57.528-34.516-51.775-69.034 0-28.764 0-63.281 5.753-92.045 0-17.259 0-34.516-11.506-46.022l-17.259-34.516c-28.764-46.022-57.528-97.798-80.539-143.82-5.753-11.506-17.259-17.259-23.012-23.012 0 0-5.753 0-11.506 0s-11.506 0-17.259 0c-5.753 0-17.259 0-23.012 0-57.528 0-120.809 0-178.337 0-34.516 0-69.034 0-103.55 0 0 0 0 0 0 0-17.259 0-34.516-5.753-40.269-17.259-11.506-5.753-11.506-17.259-11.506-40.269l5.753-46.022c11.506-120.809 23.012-247.37 34.516-368.18 5.753-40.269 23.012-57.528 57.528-57.528 0 0 0 0 0 0 86.292 0 178.337 5.753 264.629 5.753 28.764 0 46.022 17.259 46.022 46.022 0 5.753 0 5.753 0 11.506 5.753 0 5.753-5.753 11.506-5.753 17.259-11.506 40.269-17.259 69.034-17.259 0 0 0 0 0 0h80.539c86.292 0 178.337 0 264.629 0 0 0 0 0 0 0 34.516 0 63.281 17.259 86.292 46.022s28.764 69.034 17.259 97.798c0 0 0 5.753 0 11.506 23.012 34.516 28.764 63.281 23.012 97.798 0 5.753 0 11.506 5.753 17.259 23.012 28.764 28.764 57.528 17.259 86.292-5.753 11.506 0 23.012 5.753 28.764 28.764 40.269 34.516 74.787 23.012 103.55zM926.204 404.854c0-5.753 0-11.506 11.506-17.259 5.753-11.506 11.506-23.012 5.753-34.516 0-17.259-11.506-28.764-28.764-40.269-11.506-5.753-17.259-11.506-17.259-17.259s0-11.506 11.506-23.012c17.259-17.259 11.506-51.775-11.506-74.787 0 0-5.753-5.753-11.506-5.753 0 0-5.753-5.753-5.753-5.753-5.753-5.753-5.753-5.753-5.753-11.506s0-11.506 5.753-11.506c17.259-11.506 17.259-28.764 11.506-51.775-11.506-23.012-23.012-34.516-46.022-40.269-40.269 0-86.292 0-126.562 0h-11.506c-23.012 0-51.775 0-74.787 0-46.022 0-86.292 0-132.314 0 0 0 0 0 0 0-23.012 0-40.269 5.753-57.528 17.259s-28.764 17.259-46.022 17.259c0 0 0 0-5.753 0s-5.753 0-5.753 0 0 0 0 5.753c0 92.045-5.753 184.089-5.753 310.651 0 5.753 0 11.506 5.753 17.259 28.764 17.259 57.528 46.022 86.292 92.045l17.259 28.764c23.012 34.516 40.269 74.787 63.281 109.303 17.259 28.764 23.012 51.775 17.259 74.787 0 17.259 0 34.516 0 51.775 0 11.506 0 28.764 0 40.269s0 17.259 11.506 17.259c17.259 5.753 28.764 5.753 51.775-5.753 0 0 5.753-5.753 5.753-5.753 5.753-11.506 5.753-17.259 11.506-28.764 11.506-28.764 23.012-51.775 28.764-80.539 5.753-17.259 5.753-34.516 0-63.281-5.753-34.516-5.753-69.034-11.506-109.303 0-17.259-5.753-28.764-5.753-46.022v-5.753h34.516c23.012 0 40.269 0 57.528 0h23.012c51.775 0 97.798 0 149.573 0 28.764 0 46.022-11.506 51.775-34.516s-5.753-46.022-28.764-63.281c-17.259 0-17.259 0-23.012-5.753zM304.901 450.876c0 0 0 0 0 0 17.259 0 17.259 0 17.259-17.259 0-57.528 0-120.809 5.753-178.337v-109.303c0-34.516 0-69.034 0-109.303 0-5.753 0-5.753 0-5.753s-5.753 0-5.753 0c-51.775 0-103.55 0-155.326 0h-40.269c-34.516 0-34.516 0-40.269 34.516v0c-5.753 86.292-17.259 172.584-23.012 258.876l-5.753 115.056c0 5.753 0 5.753 0 11.506h23.012c28.764 0 57.528 0 86.292 0h138.067z" />
<glyph unicode="&#xe911;" glyph-name="icon-19" horiz-adv-x="864" d="M578.287 254.387h-292.571c-25.815 0-51.63-4.303-77.445-17.21-77.445-30.118-124.773-107.563-124.773-189.311v-34.42h701.312v34.42c0 68.841-34.42 133.379-90.353 172.101-8.605 8.605-21.512 12.908-34.42 17.21s-25.815 8.605-38.723 12.908c-17.21 4.303-30.118 4.303-43.026 4.303v0zM604.102 331.833v0c8.605 0 21.512-4.303 30.118-4.303 17.21-4.303 34.42-8.605 51.63-17.21 103.261-43.026 176.403-146.286 176.403-262.454v-73.143c0-21.512-17.21-38.723-38.723-38.723v0h-783.059c-21.512 0-38.723 17.21-38.723 38.723v0 73.143c0 111.865 68.841 219.429 176.403 262.454 25.815 8.605 55.933 17.21 86.050 21.512-103.261 60.235-167.798 172.101-167.798 292.571 0 185.009 150.588 335.597 335.597 335.597s335.597-154.891 335.597-335.597c0-120.471-60.235-232.336-163.496-292.571v0zM432.001 882.556v0c-103.261 0-197.916-64.538-240.941-159.194-12.908-34.42-17.21-64.538-17.21-98.958 0-103.261 64.538-197.916 159.194-236.639 64.538-25.815 137.68-25.815 202.218 0 94.656 38.723 159.194 133.379 159.194 236.639-4.303 137.68-120.471 258.151-262.454 258.151v0z" />
<glyph unicode="&#xe912;" glyph-name="icon-20" d="M978.149 957.453h-937.393c-25.473 0-40.756-15.284-40.756-40.756v-942.488c0-20.378 15.284-35.662 40.756-35.662h942.488c20.378 0 40.756 15.284 40.756 40.756v937.393c-5.095 25.473-20.378 40.756-45.851 40.756v0zM259.821 14.965v0h-183.403v76.418h56.040c20.378 0 40.756 15.284 40.756 40.756 0 20.378-15.284 40.756-40.756 40.756h-56.040v132.458h56.040c20.378 0 40.756 15.284 40.756 40.756 0 20.378-15.284 40.756-40.756 40.756h-56.040v127.363h56.040c20.378 0 40.756 15.284 40.756 40.756 0 20.378-15.284 40.756-40.756 40.756h-56.040v127.363h56.040c20.378 0 40.756 15.284 40.756 40.756 0 20.378-15.284 40.756-40.756 40.756h-56.040v76.418h183.403v-866.070zM942.488 14.965v0h-636.816v866.070h631.721v-866.070h5.095zM463.602 218.746v0h320.955c15.284 0 25.473 10.189 25.473 25.473v35.662c0 15.284-5.095 30.567-10.189 45.851s-15.284 30.567-25.473 40.756c-10.189 10.189-25.473 20.378-40.756 25.473h-5.095l5.095 5.095c25.473 25.473 40.756 61.134 40.756 101.891s-15.284 76.418-40.756 101.891c-30.567 35.662-71.323 50.945-112.080 50.945s-76.418-15.284-101.891-45.851c-25.473-25.473-45.851-61.134-45.851-101.891s15.284-76.418 45.851-101.891l5.095-5.095c-15.284-5.095-35.662-15.284-45.851-30.567-10.189-10.189-20.378-25.473-25.473-40.756s-10.189-30.567-10.189-45.851v-35.662c-5.095-15.284 5.095-25.473 20.378-25.473v0zM555.303 575.363v0c20.378 20.378 45.851 30.567 71.323 30.567s50.945-10.189 71.323-30.567c15.284-20.378 30.567-40.756 30.567-71.323 0-25.473-10.189-50.945-30.567-71.323-20.378-15.284-40.756-30.567-71.323-30.567h-5.095c-25.473 0-50.945 10.189-71.323 30.567-15.284 20.378-30.567 45.851-30.567 71.323 5.095 25.473 15.284 50.945 35.662 71.323v0zM489.075 279.881v0c0 10.189 0 20.378 5.095 30.567s10.189 20.378 15.284 25.473c15.284 15.284 35.662 25.473 56.040 25.473h117.174c10.189 0 20.378 0 30.567-5.095s15.284-10.189 25.473-15.284c5.095-10.189 15.284-15.284 15.284-25.473 5.095-10.189 5.095-20.378 5.095-30.567v-10.189h-270.010v5.095z" />
<glyph unicode="&#xe913;" glyph-name="icon-21" horiz-adv-x="912" d="M114.667 959.999h467.087c8.982 0 22.456-4.491 26.947-13.474l282.947-282.947c8.982-8.982 13.474-17.965 13.474-26.947v0-592.843c0-26.947-13.474-53.895-31.438-76.351v0 0c-17.965-17.965-44.913-31.438-71.86-31.438h-687.159c-26.947 0-53.895 13.474-76.351 31.438v0c-17.965 17.965-31.438 44.913-31.438 76.351v808.421c0 26.947 13.474 53.895 31.438 76.351 17.965 17.965 44.913 31.438 76.351 31.438v0zM226.947 174.035v0h395.228c13.474 0 22.456 8.982 22.456 22.456s-8.982 22.456-22.456 22.456h-395.228c-13.474 0-22.456-8.982-22.456-22.456 0-8.982 8.982-22.456 22.456-22.456v0zM226.947 340.21v0h269.473c13.474 0 22.456 8.982 22.456 22.456s-8.982 22.456-22.456 22.456h-269.473c-13.474 0-22.456-8.982-22.456-22.456 0-8.982 8.982-22.456 22.456-22.456v0zM226.947 506.385v0h458.105c13.474 0 22.456 8.982 22.456 22.456s-8.982 22.456-22.456 22.456h-458.105c-13.474 4.491-22.456-4.491-22.456-17.965s8.982-26.947 22.456-26.947v0zM554.807 879.157v0h-440.14c-8.982 0-17.965 0-22.456-4.491s-4.491-13.474-4.491-22.456v-812.912c0-8.982 4.491-13.474 8.982-17.965v0c0-4.491 8.982-8.982 17.965-8.982h687.159c8.982 0 13.474 4.491 17.965 8.982v0c4.491 4.491 8.982 13.474 8.982 17.965v570.387h-179.649c-22.456 0-44.913 8.982-62.877 26.947v0c-13.474 17.965-22.456 35.929-22.456 62.877v179.649h-8.982zM783.86 659.086v0l-184.14 184.14v-139.228c0-8.982 4.491-22.456 8.982-26.947v0c8.982-8.982 17.965-13.474 31.438-13.474h143.72v-4.491z" />
<glyph unicode="&#xe914;" glyph-name="icon-22" d="M875.52 811.52c92.16-92.16 148.48-220.16 148.48-358.4 0-143.36-56.32-271.36-148.48-363.52s-225.28-153.6-363.52-153.6c-102.4 0-199.68 30.72-281.6 87.040s-148.48 133.12-189.44 225.28c-15.36 30.72-20.48 61.44-30.72 97.28-5.12 35.84-10.24 66.56-10.24 102.4 0 138.24 56.32 266.24 148.48 363.52 97.28 92.16 225.28 148.48 363.52 148.48 143.36 0 271.36-56.32 363.52-148.48v0 0zM757.76 79.36c71.68 46.080 128 117.76 163.84 199.68 20.48 56.32 35.84 112.64 35.84 174.080s-10.24 117.76-35.84 174.080c-35.84 81.92-92.16 148.48-163.84 194.56s-158.72 76.8-245.76 76.8c-122.88 0-235.52-51.2-317.44-128-81.92-87.040-128-199.68-128-322.56 0-30.72 5.12-61.44 10.24-92.16s15.36-56.32 25.6-81.92c35.84-81.92 92.16-148.48 163.84-199.68 71.68-46.080 153.6-76.8 245.76-76.8 87.040 5.12 174.080 30.72 245.76 81.92v0 0zM568.32 417.28c10.24 15.36 20.48 30.72 35.84 35.84l5.12 5.12c5.12 5.12 15.36 15.36 20.48 20.48s15.36 15.36 20.48 30.72c5.12 10.24 10.24 20.48 10.24 30.72 5.12 30.72 5.12 61.44 0 87.040-5.12 15.36-10.24 25.6-15.36 35.84v0c-15.36 25.6-35.84 40.96-56.32 56.32-40.96 25.6-97.28 25.6-138.24 10.24-20.48-5.12-35.84-20.48-51.2-35.84s-25.6-30.72-35.84-51.2c-5.12-15.36-5.12-35.84-5.12-56.32 0-10.24 5.12-20.48 10.24-30.72 15.36-15.36 40.96-15.36 61.44 0 10.24 10.24 15.36 20.48 15.36 30.72s0 20.48 5.12 25.6c0 10.24 5.12 15.36 10.24 20.48s15.36 10.24 20.48 15.36c10.24 5.12 20.48 10.24 30.72 10.24 20.48 0 35.84-10.24 51.2-20.48 25.6-25.6 25.6-61.44 10.24-92.16-5.12-10.24-10.24-15.36-20.48-20.48l-5.12-5.12c-20.48-15.36-35.84-35.84-51.2-61.44-15.36-30.72-25.6-66.56-25.6-117.76 0-10.24 5.12-20.48 10.24-30.72 15.36-15.36 46.080-15.36 61.44 0 10.24 10.24 15.36 20.48 15.36 30.72-5.12 30.72 0 56.32 10.24 76.8zM512 227.84v0c-15.36 0-25.6-5.12-30.72-15.36-10.24-10.24-15.36-20.48-15.36-35.84s5.12-25.6 15.36-35.84c10.24-10.24 20.48-15.36 30.72-15.36 15.36 0 25.6 5.12 35.84 15.36s15.36 20.48 15.36 35.84c0 15.36-5.12 25.6-15.36 35.84s-20.48 15.36-35.84 15.36v0z" />
<glyph unicode="&#xe915;" glyph-name="icon-23" horiz-adv-x="880" d="M440.001 959.999c43.761 0 78.769-17.505 105.025-43.761 17.505-17.505 35.008-43.761 39.385-70.017h122.53c13.129 0 21.88-8.752 21.88-21.88v0-21.88h105.025c26.256 0 43.761-17.505 43.761-39.385v0-787.691c0-21.88-17.505-39.385-39.385-39.385v0h-796.444c-21.88 0-39.385 17.505-39.385 39.385v0 787.691c0 21.88 17.505 39.385 39.385 39.385v0h105.025v17.505c0 13.129 8.752 21.88 21.88 21.88v0h122.53c8.752 30.632 21.88 52.513 43.761 74.393 26.256 26.256 61.264 43.761 105.025 43.761v0zM606.292 518.016v0c17.505 13.129 39.385 13.129 56.889 0 13.129-17.505 13.129-39.385 0-56.889l-258.187-258.187c-13.129-13.129-39.385-13.129-52.513 0v0l-131.282 131.282c-13.129 13.129-13.129 39.385 0 52.513s39.385 13.129 52.513 0l100.649-100.649 231.931 231.931zM540.65 846.221v0c-4.376 13.129-13.129 26.256-26.256 39.385-17.505 17.505-43.761 30.632-74.393 30.632s-56.889-13.129-74.393-30.632c-8.752-13.129-17.505-26.256-26.256-39.385h201.299zM733.198 723.692v0-21.88c0-13.129-8.752-21.88-21.88-21.88v0h-542.632c-13.129 0-21.88 8.752-21.88 21.88v0 21.88h-65.641v-708.922h722.051v708.922h-70.017zM440.001 798.085v0h-249.436v-70.017h498.871v70.017h-249.436z" />
<glyph unicode="&#xe916;" glyph-name="icon-24" d="M81.92 422.4h66.56c15.36 0 25.6 10.24 25.6 25.6s-10.24 25.6-25.6 25.6h-92.16c-40.96 0-56.32-5.12-51.2-46.080 0-61.44 15.36-122.88 40.96-174.080v0c25.6-61.44 66.56-117.76 112.64-163.84 87.040-97.28 215.040-153.6 358.4-153.6 66.56 0 133.12 15.36 194.56 40.96v0c61.44 25.6 117.76 61.44 163.84 112.64 92.16 92.16 148.48 220.16 148.48 363.52 0 71.68-15.36 133.12-40.96 194.56v0c-25.6 61.44-61.44 117.76-107.52 163.84s-102.4 87.040-168.96 112.64c-56.32 20.48-122.88 35.84-189.44 35.84-71.68 0-133.12-15.36-194.56-40.96v0c-35.84-10.24-66.56-30.72-97.28-51.2l5.12 51.2c0 20.48-15.36 40.96-35.84 40.96-25.6 0-40.96-15.36-40.96-35.84l-10.24-138.24c0-10.24 0-25.6 10.24-30.72 5.12-5.12 15.36-10.24 25.6-10.24l138.24-10.24c20.48 0 40.96 15.36 40.96 35.84s-15.36 40.96-35.84 40.96h-35.84c20.48 10.24 40.96 25.6 61.44 30.72v0c46.080 20.48 92.16 30.72 143.36 30.72v-66.56c0-15.36 10.24-25.6 25.6-25.6s25.6 10.24 25.6 25.6v76.8c51.2 0 97.28-15.36 143.36-30.72 10.24-5.12 20.48-10.24 30.72-15.36l-10.24-20.48c-5.12-10.24 0-25.6 10.24-30.72s25.6 0 30.72 10.24l10.24 20.48c20.48-20.48 46.080-40.96 66.56-61.44s40.96-46.080 56.32-71.68l-20.48-10.24c-10.24-5.12-15.36-20.48-10.24-30.72s20.48-15.36 30.72-10.24l20.48 10.24c5.12-10.24 10.24-20.48 15.36-30.72v0c20.48-46.080 30.72-92.16 30.72-143.36h-66.56c-10.24 0-20.48-10.24-20.48-25.6 0-10.24 10.24-25.6 20.48-25.6h66.56c-5.12-61.44-20.48-122.88-46.080-174.080l-20.48 10.24c-10.24 5.12-25.6 0-30.72-10.24s-5.12-25.6 10.24-30.72l20.48-10.24c-15.36-25.6-35.84-51.2-56.32-71.68s-46.080-40.96-71.68-56.32l-10.24 20.48c-5.12 10.24-20.48 15.36-30.72 10.24s-15.36-20.48-10.24-30.72l10.24-20.48c-10.24-5.12-20.48-10.24-30.72-15.36v0c-46.080-20.48-92.16-30.72-143.36-30.72v66.56c0 10.24-10.24 20.48-25.6 20.48-10.24 0-25.6-10.24-25.6-20.48v-66.56c-61.44 5.12-122.88 20.48-174.080 46.080l10.24 20.48c5.12 10.24 5.12 25.6-10.24 30.72-10.24 5.12-25.6 5.12-30.72-10.24l-10.24-20.48c-15.36 25.6-40.96 46.080-61.44 66.56s-40.96 46.080-56.32 71.68l20.48 10.24c10.24 5.12 15.36 20.48 10.24 30.72s-20.48 15.36-30.72 10.24l-20.48-10.24c-5.12 10.24-10.24 20.48-15.36 30.72v0c-20.48 40.96-30.72 92.16-35.84 138.24v0zM476.16 714.24v0c0 25.6 20.48 40.96 40.96 40.96s40.96-15.36 40.96-40.96v-245.76l230.4-133.12c20.48-10.24 25.6-35.84 15.36-51.2-10.24-20.48-35.84-25.6-51.2-15.36l-245.76 143.36c-10.24 5.12-20.48 20.48-20.48 35.84v266.24h-10.24z" />
<glyph unicode="&#xe917;" glyph-name="icon-25" d="M371.9 463.284c10.189-10.189 30.567-20.378 45.851-20.378 20.378 0 35.662 5.095 45.851 20.378 10.189 10.189 20.378 30.567 20.378 45.851s-10.189 35.662-20.378 45.851v0c-10.189 15.284-25.473 20.378-45.851 20.378s-35.662-5.095-45.851-20.378v0c-10.189-10.189-20.378-25.473-20.378-45.851s10.189-35.662 20.378-45.851v0 0zM407.562 524.418v0c0 0 5.095 5.095 10.189 5.095s10.189 0 15.284-5.095c5.095-5.095 5.095-10.189 5.095-15.284s0-10.189-5.095-15.284c-5.095 0-10.189-5.095-15.284-5.095s-10.189 5.095-10.189 5.095-10.189 10.189-10.189 15.284c0 5.095 5.095 10.189 10.189 15.284v0zM371.9 284.975v0c10.189-10.189 30.567-20.378 45.851-20.378 20.378 0 35.662 5.095 45.851 20.378v0c10.189 10.189 20.378 30.567 20.378 45.851 0 20.378-10.189 35.662-20.378 45.851v0c-10.189 15.284-25.473 20.378-45.851 20.378s-35.662-5.095-45.851-20.378v0c-10.189-10.189-20.378-30.567-20.378-45.851s10.189-35.662 20.378-45.851v0 0zM407.562 346.109v0 0c5.095 5.095 10.189 5.095 15.284 5.095s10.189 0 15.284-5.095v0c5.095-5.095 5.095-10.189 5.095-15.284s0-10.189-5.095-15.284v0c-5.095-5.095-10.189-5.095-15.284-5.095s-10.189 0-15.284 5.095v0c-5.095 5.095-5.095 10.189-5.095 15.284-5.095 5.095 0 10.189 5.095 15.284v0zM733.612 463.284v0c10.189-10.189 30.567-20.378 45.851-20.378 20.378 0 35.662 5.095 45.851 20.378 10.189 10.189 20.378 30.567 20.378 45.851s-5.095 35.662-20.378 45.851v0c-10.189 10.189-30.567 20.378-45.851 20.378-20.378 0-35.662-5.095-45.851-20.378v0c-10.189-10.189-20.378-25.473-20.378-45.851s10.189-35.662 20.378-45.851v0 0zM769.274 524.418v0c5.095 5.095 10.189 5.095 15.284 5.095s10.189 0 15.284-5.095c5.095-5.095 5.095-10.189 5.095-15.284s0-10.189-5.095-15.284c-5.095-5.095-10.189-5.095-15.284-5.095s-10.189 0-15.284 5.095c-5.095 5.095-10.189 10.189-10.189 15.284s5.095 10.189 10.189 15.284v0zM550.209 463.284v0c10.189-10.189 30.567-20.378 45.851-20.378 20.378 0 35.662 5.095 45.851 20.378 10.189 10.189 20.378 30.567 20.378 45.851s-10.189 35.662-20.378 45.851v0c-10.189 10.189-30.567 20.378-45.851 20.378-20.378 0-35.662-5.095-45.851-20.378v0c-10.189-10.189-20.378-30.567-20.378-45.851 5.095-20.378 10.189-35.662 20.378-45.851v0 0zM585.871 524.418v0c5.095 5.095 10.189 5.095 15.284 5.095s10.189 0 15.284-5.095v0c5.095-5.095 5.095-10.189 5.095-15.284s0-10.189-5.095-15.284c-5.095-5.095-10.189-5.095-15.284-5.095s-10.189 0-15.284 5.095c-5.095 5.095-5.095 10.189-5.095 15.284s0 10.189 5.095 15.284v0zM371.9 106.667v0c10.189-10.189 30.567-20.378 45.851-20.378 20.378 0 35.662 10.189 45.851 20.378v0c10.189 10.189 20.378 30.567 20.378 45.851 0 20.378-10.189 35.662-20.378 45.851v0c-10.189 10.189-30.567 20.378-45.851 20.378-20.378 0-35.662-5.095-45.851-20.378v0c-10.189-10.189-20.378-30.567-20.378-45.851s10.189-35.662 20.378-45.851v0 0zM407.562 167.801v0c5.095 5.095 10.189 5.095 15.284 5.095s10.189 0 15.284-5.095c5.095-5.095 5.095-10.189 5.095-15.284s0-10.189-5.095-15.284v0c-5.095-5.095-10.189-5.095-15.284-5.095s-10.189 0-15.284 5.095v0c-5.095 5.095-5.095 10.189-5.095 15.284-5.095 5.095 0 10.189 5.095 15.284v0zM978.149 957.453v0h-937.393c-25.473 0-40.756-15.284-40.756-40.756v-942.488c0-20.378 15.284-35.662 40.756-35.662h942.488c20.378 0 40.756 15.284 40.756 40.756v937.393c-5.095 25.473-20.378 40.756-45.851 40.756v0zM942.488 14.965v0h-866.070v636.816h860.975v-636.816h5.095zM942.488 697.632v0h-866.070v183.403h76.418v-56.040c0-20.378 15.284-40.756 40.756-40.756 20.378 0 40.756 15.284 40.756 40.756v56.040h132.458v-56.040c0-20.378 15.284-40.756 40.756-40.756 20.378 0 40.756 15.284 40.756 40.756v56.040h132.458v-56.040c0-20.378 15.284-40.756 40.756-40.756 20.378 0 40.756 15.284 40.756 40.756v56.040h132.458v-56.040c0-20.378 15.284-40.756 40.756-40.756 20.378 0 40.756 15.284 40.756 40.756v56.040h76.418v-183.403h-10.189zM550.209 106.667v0c10.189-10.189 30.567-20.378 45.851-20.378s35.662 10.189 45.851 20.378v0c10.189 10.189 20.378 30.567 20.378 45.851 0 20.378-10.189 35.662-20.378 45.851v0c-10.189 10.189-30.567 20.378-45.851 20.378-20.378 0-35.662-5.095-45.851-20.378v0c-10.189-10.189-20.378-30.567-20.378-45.851 5.095-15.284 10.189-35.662 20.378-45.851v0 0zM585.871 167.801v0c5.095 5.095 10.189 5.095 15.284 5.095s10.189 0 15.284-5.095v0c5.095-5.095 5.095-10.189 5.095-15.284s0-10.189-5.095-15.284v0c-5.095-5.095-10.189-5.095-15.284-5.095s-10.189 0-15.284 5.095v0c-5.095 5.095-5.095 10.189-5.095 15.284s0 10.189 5.095 15.284v0zM193.592 284.975v0c10.189-10.189 30.567-20.378 45.851-20.378 20.378 0 35.662 5.095 45.851 20.378v0c10.189 10.189 20.378 30.567 20.378 45.851 0 20.378-5.095 35.662-20.378 45.851v0c-10.189 15.284-30.567 20.378-45.851 20.378-20.378 0-35.662-5.095-45.851-20.378-10.189-10.189-20.378-30.567-20.378-45.851s5.095-35.662 20.378-45.851v0 0zM224.159 346.109v0 0c5.095 5.095 10.189 5.095 15.284 5.095s10.189 0 15.284-5.095v0c5.095-5.095 5.095-10.189 5.095-15.284s0-10.189-5.095-15.284v0c-5.095-5.095-10.189-5.095-15.284-5.095s-10.189 0-15.284 5.095v0c-5.095 5.095-5.095 10.189-5.095 15.284s0 10.189 5.095 15.284v0zM193.592 106.667v0c10.189-10.189 30.567-20.378 45.851-20.378 20.378 0 35.662 10.189 45.851 20.378v0c10.189 10.189 20.378 30.567 20.378 45.851 0 20.378-5.095 35.662-20.378 45.851v0c-10.189 10.189-30.567 20.378-45.851 20.378-20.378 0-35.662-5.095-45.851-20.378v0c-10.189-10.189-20.378-30.567-20.378-45.851s5.095-35.662 20.378-45.851v0zM224.159 167.801v0c5.095 5.095 10.189 5.095 15.284 5.095s10.189 0 15.284-5.095v0c5.095-5.095 5.095-10.189 5.095-15.284s-5.095-10.189-5.095-10.189v0c-5.095-5.095-10.189-5.095-15.284-5.095s-10.189 0-15.284 5.095v0c-5.095 5.095-5.095 10.189-5.095 15.284 0 0 0 5.095 5.095 10.189v0zM550.209 284.975v0c10.189-10.189 30.567-20.378 45.851-20.378s35.662 5.095 45.851 20.378v0c10.189 10.189 20.378 30.567 20.378 45.851 0 20.378-10.189 35.662-20.378 45.851v0c-10.189 10.189-30.567 20.378-45.851 20.378-20.378 0-35.662-5.095-45.851-20.378v0c-10.189-10.189-20.378-30.567-20.378-45.851 5.095-15.284 10.189-35.662 20.378-45.851v0 0zM585.871 346.109v0 0c5.095 5.095 10.189 5.095 15.284 5.095s10.189 0 15.284-5.095v0c5.095-5.095 5.095-10.189 5.095-15.284s0-10.189-5.095-15.284v0c-5.095-5.095-10.189-5.095-15.284-5.095s-10.189 0-15.284 5.095v0c-5.095 5.095-5.095 10.189-5.095 15.284s0 10.189 5.095 15.284v0zM733.612 284.975v0c10.189-10.189 30.567-20.378 45.851-20.378 20.378 0 35.662 5.095 45.851 20.378v0c10.189 10.189 20.378 30.567 20.378 45.851 0 20.378-5.095 35.662-20.378 45.851-10.189 15.284-25.473 20.378-45.851 20.378s-35.662-5.095-45.851-20.378c-10.189-10.189-20.378-30.567-20.378-45.851s10.189-35.662 20.378-45.851v0 0zM769.274 346.109v0 0c5.095 5.095 10.189 5.095 15.284 5.095s10.189 0 15.284-5.095v0c5.095-5.095 5.095-10.189 5.095-15.284s0-10.189-5.095-15.284v0c-5.095-5.095-10.189-5.095-15.284-5.095s-10.189 0-15.284 5.095v0c-5.095 5.095-5.095 10.189-5.095 15.284-5.095 5.095 0 10.189 5.095 15.284v0z" />
<glyph unicode="&#xe918;" glyph-name="icon-26" horiz-adv-x="896" d="M394.34 369.746c0 13.415-8.943 22.358-22.358 22.358h-152.035c-13.415 0-22.358-8.943-22.358-22.358s8.943-22.358 22.358-22.358h152.035c13.415-4.471 22.358 8.943 22.358 22.358v0zM676.051 427.877v0c-22.358 22.358-58.131 40.245-93.904 40.245s-71.546-13.415-93.904-40.245c-26.83-22.358-40.245-58.131-40.245-93.904 0-17.887 4.471-35.773 8.943-49.188l-84.96-147.564c-4.471-4.471-4.471-13.415-4.471-17.887 4.471-13.415 17.887-17.887 31.301-17.887l67.075 17.887 17.887-67.075c0-4.471 4.471-13.415 8.943-13.415 8.943-4.471 26.83-4.471 31.301 8.943l53.659 93.904 53.659-93.904c4.471-4.471 8.943-8.943 13.415-13.415 13.415-4.471 26.83 4.471 26.83 17.887l17.887 67.075 67.075-17.887c4.471 0 13.415 0 17.887 4.471 8.943 4.471 13.415 22.358 8.943 31.301l-84.96 147.564c4.471 17.887 8.943 31.301 8.943 49.188 8.943 35.773-8.943 71.546-31.301 93.904v0zM559.789 199.824v0l-44.716-80.489-8.943 35.773c-4.471 13.415-17.887 17.887-26.83 17.887v0l-35.773-8.943 44.716 76.017c22.358-22.358 44.716-31.301 71.546-40.245v0 0 0 0zM510.601 284.785v0 0 0c-8.943 13.415-13.415 31.301-13.415 49.188 0 22.358 8.943 44.716 26.83 62.602 13.415 13.415 35.773 26.83 58.131 26.83s44.716-8.943 62.602-26.83c13.415-13.415 26.83-35.773 26.83-62.602 0-22.358-8.943-44.716-22.358-58.131v0c-44.716-40.245-111.79-35.773-138.62 8.943v0zM720.768 164.052v0l-35.773 8.943c-13.415 4.471-26.83-4.471-26.83-17.887l-8.943-35.773-44.716 80.489c26.83 4.471 53.659 17.887 71.546 35.773v0l44.716-71.546zM881.746 664.873v0l-286.183 286.183c-4.471 4.471-13.415 8.943-22.358 8.943h-465.048c-31.301 0-58.131-13.415-76.017-31.301s-31.301-44.716-31.301-71.546v-813.835c0-26.83 13.415-53.659 31.301-76.017v0 0c17.887-17.887 44.716-31.301 76.017-31.301h684.158c26.83 0 53.659 8.943 71.546 31.301v0 0c17.887 17.887 31.301 44.716 31.301 76.017v594.726c0 8.943-4.471 17.887-13.415 26.83v0zM595.563 843.736v0l183.336-183.336h-138.62c-13.415 0-22.358 4.471-31.301 13.415v0c-8.943 8.943-13.415 17.887-13.415 31.301v138.62zM814.671 43.318v0c0-8.943-4.471-13.415-8.943-17.887s-13.415-8.943-17.887-8.943h-679.686c-8.943 0-13.415 4.471-17.887 8.943s-8.943 8.943-8.943 17.887v813.835c0 8.943 4.471 13.415 8.943 17.887 0 4.471 8.943 4.471 17.887 4.471h442.69v-178.865c0-22.358 8.943-44.716 26.83-62.602v0c17.887-17.887 40.245-26.83 62.602-26.83h178.865v-567.896h-4.471zM219.947 557.553v0 0 0 0 0 0 0 0 0 0zM219.947 673.816v0h250.411c13.415 0 22.358 8.943 22.358 22.358s-8.943 22.358-22.358 22.358h-250.411c-13.415 0-22.358-8.943-22.358-22.358 0-8.943 8.943-22.358 22.358-22.358v0z" />
<glyph unicode="&#xe919;" glyph-name="icon-27" horiz-adv-x="976" d="M306.868 960v0h362.264c24.151 0 43.472-19.321 43.472-43.472v0-328.453h217.359c24.151 0 43.472-19.321 43.472-43.472 0-14.491-4.83-24.151-14.491-28.981l-439.547-439.547c-19.321-19.321-43.472-19.321-62.792 0v0l-439.547 434.717c-14.491 19.321-14.491 43.472 0 62.792 9.66 9.66 19.321 14.491 28.981 14.491v0h212.528v328.453c4.83 24.151 24.151 43.472 48.302 43.472v0zM46.038-64v0c-24.151 0-43.472 19.321-43.472 43.472s19.321 43.472 43.472 43.472h879.095c24.151 0 43.472-19.321 43.472-43.472s-19.321-43.472-43.472-43.472h-879.095zM620.83 873.057v0h-270.491v-328.453c0-24.151-19.321-43.472-43.472-43.472h-154.566l333.283-333.283 333.283 333.283h-149.736c-24.151 0-43.472 19.321-43.472 43.472v328.453h-4.83z" />
<glyph unicode="&#xe91a;" glyph-name="icon-28" d="M322.56 540.16c20.48 0 40.96-10.24 51.2-20.48 15.36-15.36 20.48-30.72 20.48-51.2s-10.24-40.96-20.48-51.2c-15.36-15.36-30.72-20.48-51.2-20.48s-40.96 10.24-51.2 20.48c-15.36 5.12-20.48 25.6-20.48 46.080s10.24 40.96 20.48 51.2c10.24 15.36 30.72 25.6 51.2 25.6v0zM512 908.8v0c138.24 0 266.24-51.2 358.4-128 92.16-81.92 153.6-194.56 153.6-317.44s-56.32-235.52-153.6-317.44c-92.16-81.92-220.16-128-358.4-128-40.96 0-81.92 5.12-122.88 15.36-30.72 5.12-66.56 15.36-97.28 25.6l-122.88-66.56c-10.24-5.12-25.6-5.12-35.84-5.12v0c-15.36 0-25.6 5.12-35.84 15.36s-20.48 20.48-20.48 30.72v0c-5.12 10.24-5.12 25.6-5.12 40.96l30.72 128c-30.72 35.84-51.2 71.68-71.68 112.64-20.48 46.080-30.72 97.28-30.72 148.48 0 122.88 56.32 235.52 153.6 317.44 92.16 76.8 220.16 128 358.4 128v0zM819.2 719.36v0c-76.8 66.56-189.44 107.52-307.2 107.52-122.88 0-230.4-40.96-307.2-107.52s-128-158.72-128-256c0-40.96 10.24-81.92 25.6-117.76 15.36-40.96 35.84-71.68 66.56-107.52 10.24-10.24 15.36-25.6 10.24-35.84l-25.6-128 117.76 66.56c10.24 5.12 25.6 5.12 35.84 0 30.72-15.36 61.44-25.6 97.28-30.72s71.68-10.24 107.52-10.24c122.88 0 230.4 40.96 307.2 107.52s122.88 158.72 122.88 256-46.080 189.44-122.88 256v0zM343.040 483.84v0c-5.12 5.12-10.24 5.12-20.48 5.12-5.12 0-15.36 0-20.48-5.12s-5.12-15.36-5.12-20.48c0-10.24 5.12-15.36 10.24-20.48 0-5.12 10.24-5.12 15.36-5.12s15.36 5.12 20.48 10.24c5.12 0 5.12 5.12 5.12 15.36 0 5.12 0 15.36-5.12 20.48v0zM512 540.16v0c20.48 0 40.96-10.24 51.2-20.48 15.36-15.36 20.48-30.72 20.48-51.2s-10.24-40.96-20.48-51.2c-15.36-15.36-30.72-20.48-51.2-20.48s-40.96 10.24-51.2 20.48c-15.36 15.36-20.48 30.72-20.48 51.2s10.24 40.96 20.48 51.2c10.24 10.24 30.72 20.48 51.2 20.48v0zM532.48 483.84v0c-5.12 5.12-10.24 10.24-20.48 10.24s-15.36-5.12-20.48-10.24c-5.12-5.12-5.12-15.36-5.12-20.48 0-10.24 5.12-15.36 10.24-20.48 0-5.12 10.24-5.12 15.36-5.12s15.36 5.12 20.48 10.24c5.12 5.12 10.24 10.24 10.24 20.48-5.12 0-5.12 10.24-10.24 15.36v0zM701.44 540.16v0c20.48 0 40.96-10.24 51.2-20.48 15.36-15.36 20.48-30.72 20.48-51.2s-10.24-40.96-20.48-51.2c-15.36-15.36-30.72-20.48-51.2-20.48s-40.96 10.24-51.2 20.48c-15.36 15.36-20.48 30.72-20.48 51.2s10.24 40.96 20.48 51.2c10.24 10.24 30.72 20.48 51.2 20.48v0zM721.92 483.84v0c-5.12 5.12-10.24 10.24-20.48 10.24s-15.36-5.12-20.48-10.24c-5.12-5.12-10.24-10.24-10.24-20.48s5.12-15.36 10.24-20.48c5.12-5.12 10.24-10.24 20.48-10.24s15.36 5.12 20.48 10.24c5.12 5.12 10.24 10.24 10.24 20.48-5.12 5.12-5.12 15.36-10.24 20.48v0z" />
<glyph unicode="&#xe91b;" glyph-name="icon-29" d="M512 960c143.36 0 271.36-56.32 363.52-148.48v0c92.16-92.16 148.48-220.16 148.48-358.4 0-143.36-56.32-271.36-148.48-363.52-92.16-97.28-220.16-153.6-363.52-153.6s-271.36 56.32-363.52 148.48v0c-92.16 92.16-148.48 220.16-148.48 363.52s56.32 271.36 148.48 363.52v0c97.28 92.16 225.28 148.48 363.52 148.48v0zM384 642.56v0c-20.48 0-40.96-10.24-51.2-20.48v0c-15.36-15.36-25.6-30.72-25.6-51.2s10.24-40.96 20.48-51.2v0c15.36-15.36 30.72-20.48 51.2-20.48s40.96 10.24 51.2 20.48v0c15.36 15.36 20.48 30.72 20.48 51.2s-10.24 40.96-20.48 51.2v0c-10.24 15.36-25.6 20.48-46.080 20.48v0zM404.48 586.24v0c-5.12 5.12-15.36 10.24-20.48 10.24s-15.36-5.12-20.48-10.24v0c-5.12 0-5.12-10.24-5.12-15.36 0-10.24 0-15.36 5.12-20.48v0c5.12-5.12 10.24-10.24 20.48-10.24 5.12 0 15.36 5.12 20.48 10.24v0c0 5.12 5.12 10.24 5.12 20.48 0 5.12-5.12 15.36-5.12 15.36v0 0zM640 642.56v0c-20.48 0-40.96-10.24-51.2-20.48v0c-15.36-15.36-20.48-30.72-20.48-51.2s10.24-40.96 20.48-51.2v0c15.36-15.36 30.72-20.48 51.2-20.48s40.96 10.24 51.2 20.48v0c15.36 10.24 25.6 30.72 25.6 51.2s-10.24 40.96-20.48 51.2v0c-15.36 15.36-35.84 20.48-56.32 20.48v0zM660.48 586.24v0c-5.12 5.12-10.24 10.24-20.48 10.24-5.12 0-15.36-5.12-20.48-10.24v0c0 0-5.12-10.24-5.12-15.36s5.12-15.36 10.24-20.48v0c5.12-5.12 10.24-10.24 20.48-10.24 5.12 0 15.36 5.12 20.48 10.24v0c0 5.12 0 10.24 0 20.48 0 5.12 0 15.36-5.12 15.36v0 0zM803.84 448v0c0-158.72-133.12-291.84-291.84-291.84-163.84 0-291.84 133.12-291.84 291.84 0 15.36-10.24 25.6-25.6 25.6s-25.6-10.24-25.6-25.6c0-189.44 153.6-343.040 343.040-343.040s343.040 153.6 343.040 343.040c0 15.36-10.24 25.6-25.6 25.6s-25.6-10.24-25.6-25.6v0zM819.2 755.2v0c-76.8 76.8-184.32 128-307.2 128-117.76 0-225.28-51.2-302.080-128v0c-76.8-76.8-128-184.32-128-307.2 0-117.76 46.080-225.28 128-307.2v0 0c76.8-76.8 184.32-128 307.2-128 117.76 0 230.4 46.080 307.2 128 76.8 76.8 128 184.32 128 307.2-5.12 117.76-56.32 225.28-133.12 307.2v0 0z" />
<glyph unicode="&#xe91c;" glyph-name="icon-30" d="M978.149 883.582h-937.393c-25.473 0-40.756-15.284-40.756-40.756v-789.652c0-20.378 15.284-40.756 40.756-40.756h942.488c20.378 0 40.756 20.378 40.756 40.756v789.652c-5.095 25.473-20.378 40.756-45.851 40.756v0zM942.488 93.93v0h-866.070v86.607l203.781 203.781 224.159-224.159c10.189-10.189 25.473-10.189 35.662 0s10.189 25.473 0 30.567l-66.229 66.229 188.498 188.498 280.199-280.199v-71.323zM942.488 231.483v0l-264.915 264.915c-10.189 10.189-25.473 10.189-35.662 0l-208.876-208.876-137.552 142.647c-10.189 10.189-25.473 10.189-30.567 0l-183.403-183.403v560.398h860.975v-575.682zM295.483 491.303v0c76.418 0 137.552 61.134 137.552 137.552s-61.134 137.552-137.552 137.552c-76.418-5.095-137.552-66.229-137.552-137.552 0-76.418 61.134-137.552 137.552-137.552v0zM295.483 715.463v0c50.945 0 91.702-40.756 91.702-91.702s-40.756-91.702-91.702-91.702c-50.945 5.095-91.702 45.851-91.702 96.796 0 45.851 40.756 86.607 91.702 86.607v0z" />
<glyph unicode="&#xe91d;" glyph-name="icon-31" d="M605.32 500.966h242.128c15.133 0 25.222 10.089 25.222 25.222s-10.089 25.222-25.222 25.222h-242.128c-15.133 0-25.222-10.089-25.222-25.222s10.089-25.222 25.222-25.222v0zM605.32 400.079v0h242.128c15.133 0 25.222 10.089 25.222 25.222s-10.089 25.222-25.222 25.222h-242.128c-15.133 0-25.222-10.089-25.222-25.222s10.089-25.222 25.222-25.222v0zM605.32 606.897v0h242.128c15.133 0 25.222 10.089 25.222 25.222s-10.089 25.222-25.222 25.222h-242.128c-15.133 0-25.222-10.089-25.222-25.222s10.089-25.222 25.222-25.222v0zM968.512 843.98v0h-928.158c-25.222 0-40.355-15.133-40.355-40.355v-711.251c0-20.177 15.133-40.355 40.355-40.355h156.374c20.177 0 40.355 20.177 40.355 40.355v60.532h65.576v-60.532c0-20.177 15.133-40.355 40.355-40.355h337.97c20.177 0 40.355 20.177 40.355 40.355v60.532h65.576v-60.532c0-20.177 20.177-40.355 40.355-40.355h156.374c20.177 0 40.355 20.177 40.355 40.355v711.251c-15.133 25.222-30.266 40.355-55.488 40.355v0zM933.202 132.729v0h-75.665v60.532c0 20.177-20.177 40.355-40.355 40.355h-141.241c-20.177 0-40.355-15.133-40.355-40.355v-60.532h-262.305v60.532c0 20.177-15.133 40.355-40.355 40.355h-141.241c-20.177 0-40.355-15.133-40.355-40.355v-60.532h-75.665v635.586h852.493v-635.586h5.044zM156.374 294.148v0h317.793c15.133 0 25.222 10.089 25.222 25.222v30.266c0 15.133-5.044 30.266-10.089 45.399s-15.133 30.266-25.222 40.355c-15.133 15.133-25.222 25.222-40.355 30.266h-5.044l5.044 5.044c25.222 25.222 40.355 60.532 40.355 100.887s-15.133 75.665-40.355 100.887c-25.222 25.222-60.532 40.355-100.887 40.355s-75.665-15.133-100.887-40.355c-25.222-25.222-40.355-60.532-40.355-100.887s15.133-75.665 40.355-100.887l5.044-5.044c-25.222-5.044-40.355-15.133-55.488-30.266-10.089-10.089-20.177-25.222-25.222-40.355-10.089-10.089-10.089-30.266-10.089-45.399v-35.31c0-10.089 10.089-20.177 20.177-20.177v0zM247.172 642.207v0c20.177 20.177 40.355 30.266 70.621 30.266 25.222 0 50.443-10.089 70.621-30.266 15.133-15.133 25.222-40.355 25.222-70.621 0-25.222-10.089-50.443-30.266-70.621-40.355-40.355-100.887-40.355-141.241 0-15.133 20.177-25.222 45.399-25.222 70.621 0 30.266 10.089 55.488 30.266 70.621v0zM181.596 349.635v0c0 10.089 0 20.177 5.044 30.266s10.089 15.133 20.177 25.222 35.31 25.222 55.488 25.222h116.020c10.089 0 20.177 0 30.266-5.044s20.177-10.089 25.222-15.133c5.044-15.133 10.089-20.177 10.089-30.266 5.044-10.089 10.089-20.177 10.089-30.266v-10.089h-272.394v10.089z" />
<glyph unicode="&#xe91e;" glyph-name="icon-32" horiz-adv-x="976" d="M712.304 57.907c14.629-14.629 14.629-39.010 0-53.638s-39.010-14.629-53.638 0l-141.41 141.41c-14.629 14.629-14.629 39.010 0 53.638s39.010 14.629 53.638 0l141.41-141.41zM712.304-0.608c-14.629-14.629-39.010-14.629-53.638 0s-14.629 39.010 0 53.638l248.686 248.686c14.629 14.629 39.010 14.629 53.638 0s14.629-39.010 0-53.638l-248.686-248.686zM536.761 14.021v0h-458.362v867.961h419.352l248.686-248.686v-326.705c0-19.505 19.505-39.010 39.010-39.010 24.381 0 39.010 19.505 39.010 39.010v341.333c0 9.752-4.876 19.505-9.752 29.257l-273.067 273.067c-9.752 4.876-19.505 9.752-29.257 9.752h-472.99c-19.505 0-39.010-19.505-39.010-39.010v-945.98c0-24.381 19.505-39.010 39.010-39.010h497.371c24.381 0 39.010 19.505 39.010 39.010s-19.505 39.010-39.010 39.010v0zM590.399 540.65v0c14.629 0 24.381-9.752 24.381-24.381s-9.752-24.381-24.381-24.381h-355.962c-14.629 0-24.381 9.752-24.381 24.381s9.752 24.381 24.381 24.381h355.962zM590.399 433.373v0c14.629 0 24.381-9.752 24.381-24.381s-9.752-24.381-24.381-24.381h-131.657c-14.629 0-24.381 9.752-24.381 24.381s9.752 24.381 24.381 24.381h131.657zM366.094 433.373v0c14.629 0 24.381-9.752 24.381-24.381s-9.752-24.381-24.381-24.381h-131.657c-14.629 0-24.381 9.752-24.381 24.381s9.752 24.381 24.381 24.381h131.657zM527.009 326.097v0c14.629 0 24.381-9.752 24.381-24.381s-9.752-24.381-24.381-24.381h-68.267c-14.629 0-24.381 9.752-24.381 24.381s9.752 24.381 24.381 24.381h68.267zM366.094 326.097v0c14.629 0 24.381-9.752 24.381-24.381s-9.752-24.381-24.381-24.381h-131.657c-14.629 0-24.381 9.752-24.381 24.381s9.752 24.381 24.381 24.381h131.657zM444.113 218.821v0c14.629 0 24.381-9.752 24.381-24.381s-9.752-24.381-24.381-24.381h-209.676c-14.629 0-24.381 9.752-24.381 24.381s9.752 24.381 24.381 24.381h209.676z" />
<glyph unicode="&#xe91f;" glyph-name="icon-33" d="M829.44 847.36c-5.12 20.48-25.6 30.72-40.96 25.6l-209.92-56.32c-5.12 10.24-15.36 15.36-30.72 15.36h-512c-20.48 0-35.84-15.36-35.84-35.84v-737.28c0-20.48 15.36-35.84 35.84-35.84h512c20.48 0 35.84 15.36 35.84 35.84v445.44l122.88-455.68c5.12-20.48 25.6-30.72 40.96-25.6l245.76 66.56c20.48 5.12 30.72 25.6 25.6 40.96l-189.44 716.8zM271.36 89.6v0h-199.68v670.72h199.68v-670.72zM512 89.6v0h-199.68v670.72h199.68v-670.72zM768 99.84v0l-174.080 645.12 179.2 51.2 174.080-645.12-179.2-51.2zM117.76 181.76v0 0c15.36-15.36 30.72-20.48 51.2-20.48s35.84 10.24 51.2 20.48v0c15.36 10.24 20.48 30.72 20.48 51.2s-10.24 35.84-20.48 51.2v0c-10.24 10.24-30.72 20.48-51.2 20.48s-35.84-10.24-51.2-20.48c-15.36-10.24-20.48-30.72-20.48-51.2s10.24-40.96 20.48-51.2v0zM148.48 248.32v0c5.12 5.12 15.36 10.24 20.48 10.24 10.24 0 15.36-5.12 20.48-10.24v0c5.12-5.12 10.24-10.24 10.24-20.48s-5.12-15.36-10.24-20.48c-5.12-5.12-10.24-10.24-20.48-10.24s-15.36 5.12-20.48 10.24v0c-5.12 5.12-5.12 10.24-5.12 20.48s0 15.36 5.12 20.48v0zM163.84 401.92v0c10.24 0 20.48 10.24 20.48 20.48v256c0 10.24-10.24 20.48-20.48 20.48s-20.48-10.24-20.48-20.48v-256c0-10.24 10.24-20.48 20.48-20.48v0zM696.32 709.12v0c-10.24-5.12-20.48-15.36-15.36-25.6l66.56-245.76c5.12-10.24 15.36-20.48 25.6-15.36s15.36 15.36 15.36 25.6l-66.56 245.76c0 15.36-10.24 20.48-25.6 15.36v0zM358.4 181.76v0 0c10.24-15.36 30.72-25.6 51.2-25.6s35.84 10.24 51.2 20.48v0c10.24 10.24 20.48 30.72 20.48 51.2s-10.24 35.84-20.48 51.2c-15.36 10.24-30.72 20.48-51.2 20.48s-35.84-10.24-51.2-20.48v0c-15.36-10.24-20.48-30.72-20.48-51.2 0-15.36 5.12-35.84 20.48-46.080v0zM389.12 248.32v0c5.12 5.12 10.24 10.24 20.48 10.24s15.36-5.12 20.48-10.24v0c5.12-5.12 10.24-10.24 10.24-20.48s-5.12-15.36-10.24-20.48v0c-5.12-5.12-10.24-10.24-20.48-10.24s-15.36 5.12-20.48 10.24v0c-5.12 5.12-5.12 10.24-5.12 20.48-5.12 10.24 0 15.36 5.12 20.48v0zM419.84 401.92v0c10.24 0 20.48 10.24 20.48 20.48v256c0 10.24-10.24 20.48-20.48 20.48s-20.48-10.24-20.48-20.48v-256c0-10.24 10.24-20.48 20.48-20.48v0zM773.12 309.76v0c-15.36-10.24-20.48-30.72-20.48-51.2s10.24-35.84 20.48-51.2v0c15.36-10.24 30.72-20.48 51.2-20.48s35.84 10.24 51.2 20.48v0 0c10.24 10.24 20.48 30.72 20.48 51.2s-10.24 35.84-20.48 51.2v0 0c-15.36 10.24-30.72 20.48-51.2 20.48s-40.96-10.24-51.2-20.48v0zM803.84 279.040v0c5.12 5.12 10.24 10.24 20.48 10.24s15.36-5.12 20.48-10.24c5.12-5.12 10.24-10.24 10.24-20.48 0-5.12-5.12-15.36-10.24-20.48s-10.24-10.24-20.48-10.24c-10.24 0-15.36 5.12-20.48 10.24v0c-5.12 5.12-10.24 10.24-10.24 20.48 0 5.12 5.12 15.36 10.24 20.48v0z" />
<glyph unicode="&#xe920;" glyph-name="icon-34" horiz-adv-x="896" d="M219.947 508.366c-13.415 0-22.358 8.943-22.358 22.358s8.943 26.83 22.358 26.83h456.105c13.415 0 22.358-8.943 22.358-22.358s-8.943-22.358-22.358-22.358h-456.105v-4.471zM219.947 226.655v0c13.415 0 22.358-8.943 22.358-22.358s-8.943-22.358-22.358-22.358c-13.415 0-22.358 8.943-22.358 22.358 0 8.943 8.943 22.358 22.358 22.358v0zM219.947 333.974v0c13.415 0 22.358-8.943 22.358-22.358s-8.943-22.358-22.358-22.358c-13.415 0-22.358 8.943-22.358 22.358s8.943 22.358 22.358 22.358v0zM219.947 445.764v0c13.415 0 22.358-8.943 22.358-22.358s-8.943-22.358-22.358-22.358c-13.415 0-22.358 8.943-22.358 22.358s8.943 22.358 22.358 22.358v0zM313.851 177.468v0c-13.415 0-22.358 8.943-22.358 22.358s8.943 22.358 22.358 22.358h362.201c13.415 0 22.358-8.943 22.358-22.358s-8.943-22.358-22.358-22.358h-362.201zM313.851 401.048v0c-13.415 0-22.358 8.943-22.358 22.358s8.943 22.358 22.358 22.358c152.035 0 210.166 0 362.201 0 13.415 0 22.358-8.943 22.358-22.358s-8.943-22.358-22.358-22.358c-152.035 0-210.166 0-362.201 0v0zM313.851 289.258v0c-13.415 0-22.358 8.943-22.358 22.358s8.943 22.358 22.358 22.358c152.035 0 210.166 0 362.201 0 13.415 0 22.358-8.943 22.358-22.358s-8.943-22.358-22.358-22.358c-152.035 0-210.166 0-362.201 0v0zM108.157 960v0h465.048c8.943 0 22.358-4.471 26.83-13.415l286.183-286.183c4.471-4.471 8.943-13.415 8.943-26.83v0-590.254c0-26.83-13.415-53.659-31.301-76.017v0 0c-17.887-17.887-44.716-31.301-71.546-31.301h-684.158c-26.83 0-53.659 13.415-76.017 31.301v0 0c-17.887 17.887-31.301 44.716-31.301 76.017v809.363c0 26.83 13.415 53.659 31.301 76.017 17.887 17.887 44.716 31.301 76.017 31.301v0zM546.375 879.511v0h-438.218c-8.943 0-17.887 0-22.358-4.471-4.471-8.943-4.471-13.415-4.471-22.358v-809.363c0-8.943 4.471-13.415 8.943-17.887 0-4.471 8.943-8.943 17.887-8.943h684.158c8.943 0 13.415 4.471 17.887 8.943v0c4.471 4.471 8.943 13.415 8.943 17.887v567.896h-178.865c-22.358 0-44.716 8.943-62.602 26.83v0c-13.415 17.887-26.83 35.773-26.83 62.602v178.865h-4.471zM778.899 660.401v0l-183.336 183.336v-138.62c0-8.943 4.471-22.358 13.415-26.83v0c8.943-8.943 17.887-13.415 31.301-13.415h138.62v-4.471z" />
<glyph unicode="&#xe921;" glyph-name="icon-45" d="M512.001 959.999c143.551 0 267.963-57.421 363.663-148.336v-4.786c90.915-90.915 148.336-220.112 148.336-358.878 0-143.551-57.421-267.963-148.336-363.663h-4.786c-90.915-90.915-220.112-148.336-358.878-148.336-143.551 0-267.963 57.421-363.663 148.336-90.915 90.915-148.336 220.112-148.336 363.663s57.421 267.963 148.336 363.663v0 0c95.701 90.915 224.897 148.336 363.663 148.336v0zM736.899 486.28v0h-181.832v315.813c0 23.926-19.14 38.28-38.28 38.28s-38.28-19.14-38.28-38.28v-354.093c0-23.926 19.14-38.28 38.28-38.28h224.897c23.926 0 38.28 19.14 38.28 38.28-4.786 19.14-19.14 38.28-43.065 38.28v0zM818.244 754.243v0c-76.561 81.345-186.616 129.196-306.243 129.196s-224.897-52.635-306.243-129.196v0c-76.561-81.345-124.411-186.616-124.411-306.243s47.85-229.682 129.196-306.243c76.561-76.561 186.616-129.196 306.243-129.196s224.897 47.85 306.243 124.411v0c76.561 76.561 129.196 186.616 129.196 306.243-4.786 124.411-52.635 229.682-133.981 311.027v0 0z" />
<glyph unicode="&#xe922;" glyph-name="icon-35" horiz-adv-x="864" d="M614.769 207.077c-4.154-4.154-8.307-8.307-12.462-8.307 0 0-4.154 0-4.154 0-4.154 0-8.307 0-8.307 4.154l-191.078 128.77c0 0-4.154 0-4.154 4.154-4.154 0-4.154 4.154-4.154 8.307v224.308c0 4.154 0 8.307 4.154 12.462s8.307 4.154 12.462 4.154h45.692c4.154 0 8.307 0 12.462-4.154s4.154-8.307 4.154-12.462v-191.078l162.001-112.154c8.307-4.154 8.307-16.616 4.154-24.923l-20.769-33.231zM386.307 817.695l-45.692 78.924c-24.923 41.539-99.693 49.846-203.539-12.462-108.001-58.154-137.077-128.77-112.154-170.309l41.539-70.615c74.769 95.539 191.078 162.001 319.848 174.462zM797.54 643.232l41.539 70.615c24.923 45.692-4.154 112.154-112.154 174.462s-178.616 54-203.539 8.307l-45.692-74.769c128.77-16.616 245.078-83.078 319.848-178.616zM432 776.156c-228.463 0-415.388-186.924-415.388-415.388s186.924-415.388 415.388-415.388c228.463 0 415.388 186.924 415.388 415.388s-186.924 415.388-415.388 415.388zM432 49.228c-170.309 0-311.54 141.232-311.54 311.54s141.232 311.54 311.54 311.54c170.309 0 311.54-141.232 311.54-311.54s-141.232-311.54-311.54-311.54z" />
<glyph unicode="&#xe923;" glyph-name="icon-16" d="M916.014 191.069l-405.877 409.6-405.877-405.877h-104.262l510.138 510.138 513.862-513.862z" />
<glyph unicode="&#xe924;" glyph-name="icon-48" d="M104.261 704.931l409.6-409.6 405.877 402.152h104.262l-510.138-506.414-513.862 513.862z" />
<glyph unicode="&#xe925;" glyph-name="icon-46" horiz-adv-x="514" d="M513.931 855.738l-409.6-409.6 405.876-405.876v-104.262l-510.138 510.138 513.862 513.862z" />
<glyph unicode="&#xe926;" glyph-name="icon-47" horiz-adv-x="514" d="M0.069 43.986l409.6 405.876-402.153 405.876v104.262l506.415-510.138-513.862-513.862z" />
<glyph unicode="&#xe927;" glyph-name="icon-36" horiz-adv-x="1004" d="M994.117 304.571c-14.838 64.296-44.512 118.701-79.134 168.16-9.892 9.892-14.838 19.783-4.946 34.621 9.892 24.729 9.892 49.459-4.946 74.188-19.783 29.676-24.729 64.296-29.676 98.917-14.838 74.188-49.459 143.43-113.755 192.889-79.134 59.35-168.16 79.134-257.185 74.188-173.105-4.946-306.644-138.484-321.482-306.644 0-4.946 0-9.892-4.946-14.838-14.838-24.729-9.892-54.405-24.729-74.188-4.946-4.946-4.946-9.892-4.946-14.838-9.892-14.838 0-29.676 0-44.512v0 0c-93.972-69.243-148.376-158.267-138.484-281.915 0-14.838 0-34.621 19.783-39.567 14.838-4.946 29.676 9.892 44.512 19.783 14.838 14.838 29.676 34.621 39.567 59.35 14.838-64.296 49.459-113.755 98.917-148.376 0 0 4.946-4.946 0-9.892-4.946 0-9.892 0-14.838 0-49.459-4.946-79.134-49.459-59.35-89.026 4.946-19.783 24.729-29.676 39.567-34.621 29.676-14.838 64.296-19.783 98.917-19.783v0c9.892 0 24.729-4.946 34.621-4.946 59.35 0 118.701 0 168.16 34.621 24.729 14.838 44.512 14.838 69.243 9.892 14.838 0 29.676-9.892 39.567-14.838 14.838-4.946 34.621-9.892 49.459-9.892v0 0c0 0 4.946 0 4.946 0 44.512-9.892 89.026-14.838 133.538-9.892v0 0c39.567 0 74.188 9.892 103.863 29.676 39.567 19.783 39.567 54.405 9.892 84.079-19.783 19.783-44.512 29.676-69.243 39.567 34.621 39.567 59.35 79.134 74.188 133.538 4.946-14.838 9.892-19.783 14.838-29.676s9.892-19.783 14.838-24.729c19.783-24.729 34.621-24.729 49.459 4.946 4.946 4.946 4.946 9.892 9.892 19.783 19.783 24.729 14.838 59.35 9.892 93.972zM385.776 269.95c0 0 0 0 0 0s0 0 0 0 0 0 0 0z" />
<glyph unicode="&#xe928;" glyph-name="icon-37" d="M896 896h-768l-128-256v-640h1024v645.12l-128 250.88zM696.32 322.56l-163.84-194.56c-10.24-15.36-30.72-15.36-46.080 0l-163.84 194.56c-10.24 15.36-5.12 25.6 10.24 25.6h87.040c10.24 0 20.48 0 35.84 0v184.32c0 20.48 15.36 35.84 35.84 35.84h40.96c20.48 0 35.84-15.36 35.84-35.84v-184.32c10.24 0 25.6 0 35.84 0h87.040c15.36 0 20.48-10.24 5.12-25.6zM138.24 680.96l66.56 143.36h614.4l71.68-143.36h-752.64z" />
<glyph unicode="&#xe929;" glyph-name="icon-38" d="M790.369 833.243c9.942-4.971 69.592-24.854 104.388-44.738 89.476-64.621 129.243-183.922 99.417-288.311-4.971-19.883-19.883-34.796-44.738-34.796s-39.767 24.854-29.825 54.68c9.942 44.738 9.942 89.476-9.942 129.243-34.796 74.563-114.33 119.301-198.835 104.388-39.767-4.971-64.621 14.913-54.68 49.709 4.971 19.883 29.825 24.854 39.767 29.825 19.883 9.942 74.563 4.971 94.447 0zM864.932 564.816c0-4.971 0-14.913-4.971-19.883-4.971-24.854-19.883-34.796-39.767-29.825s-29.825 19.883-24.854 44.738c4.971 34.796-4.971 64.621-39.767 74.563-9.942 4.971-19.883 4.971-29.825 4.971-24.854-9.942-39.767 0-39.767 24.854 0 19.883 14.913 34.796 34.796 34.796 79.534 9.942 144.155-49.709 144.155-134.214zM869.903 375.922c-14.913 59.65-59.65 89.476-114.33 104.388-19.883 4.971-24.854 14.913-19.883 34.796 24.854 74.563-4.971 119.301-79.534 124.272-4.971 0-9.942 0-19.883 0-44.738-4.971-84.505-14.913-124.272-29.825-4.971-4.971-14.913-9.942-19.883 0-4.971 4.971 0 14.913 0 19.883 9.942 14.913 9.942 29.825 9.942 44.738 0 54.68-29.825 84.505-84.505 79.534-34.796 0-64.621-4.971-94.447-19.883-124.272-64.621-218.718-154.097-283.34-278.369-14.913-24.854-29.825-64.621-29.825-84.505s-9.942-54.68-4.971-79.534c9.942-49.709 34.796-94.447 74.563-124.272 49.709-39.767 104.388-64.621 159.068-84.505 34.796-9.942 69.592-9.942 104.388-19.883 54.68-4.971 84.505-9.942 149.126 0 39.767 4.971 59.65 9.942 89.476 19.883 99.417 29.825 188.893 74.563 248.544 159.068 34.796 44.738 49.709 84.505 39.767 134.214zM641.243 216.854c-54.68-49.709-124.272-79.534-198.835-89.476-94.447-9.942-183.922 0-263.456 49.709-19.883 9.942-34.796 24.854-44.738 44.738-39.767 59.65-34.796 134.214 19.883 188.893 59.65 59.65 134.214 89.476 213.748 104.388 19.883 4.971 39.767 4.971 49.709 4.971 79.534 0 144.155-14.913 203.806-49.709 99.417-64.621 109.359-173.981 19.883-253.515zM387.728 405.748c84.505 0 139.184-44.738 154.097-104.388 9.942-44.738-9.942-84.505-39.767-114.33-49.709-49.709-109.359-64.621-178.951-44.738-49.709 14.913-79.534 39.767-94.447 89.476-9.942 49.709 4.971 94.447 44.738 129.243 34.796 29.825 79.534 44.738 114.33 44.738zM387.728 246.68c0 24.854-19.883 39.767-44.738 44.738-29.825 0-64.621-29.825-59.65-54.68 0-24.854 19.883-39.767 49.709-39.767 24.854-4.971 54.68 19.883 54.68 49.709zM417.553 311.301c-9.942 0-19.883-9.942-19.883-19.883s4.971-14.913 14.913-14.913c9.942 0 19.883 4.971 19.883 19.883 0 9.942-4.971 14.913-14.913 14.913z" />
<glyph unicode="&#xe92a;" glyph-name="icon-39" d="M706.56 583.68c-10.24 163.84-163.84 296.96-353.28 296.96-194.56 0-353.28-143.36-353.28-317.44 0-107.52 61.44-204.8 153.6-261.12l-25.6-102.4 122.88 61.44c35.84-10.24 71.68-15.36 107.52-15.36 10.24 0 25.6 0 35.84 0-5.12 20.48-10.24 46.080-10.24 66.56 0 148.48 143.36 271.36 322.56 271.36zM230.4 588.8c-25.6 0-46.080 20.48-46.080 46.080s20.48 46.080 46.080 46.080c25.6 0 46.080-20.48 46.080-46.080s-20.48-46.080-46.080-46.080zM501.76 686.080c25.6 0 46.080-20.48 46.080-46.080s-20.48-46.080-46.080-46.080c-25.6 0-46.080 20.48-46.080 46.080 0 20.48 20.48 46.080 46.080 46.080zM1024 312.32c0 143.36-138.24 256-312.32 256s-312.32-117.76-312.32-256 138.24-256 312.32-256c30.72 0 66.56 5.12 97.28 10.24l107.52-51.2-25.6 81.92c81.92 51.2 133.12 128 133.12 215.040zM583.68 332.8c-20.48 0-40.96 15.36-40.96 35.84s20.48 35.84 40.96 35.84c20.48 0 40.96-15.36 40.96-35.84s-20.48-35.84-40.96-35.84zM819.2 332.8c-20.48 0-40.96 15.36-40.96 35.84s20.48 35.84 40.96 35.84c20.48 0 40.96-15.36 40.96-35.84s-20.48-35.84-40.96-35.84z" />
<glyph unicode="&#xe92b;" glyph-name="icon-40" horiz-adv-x="1019" d="M290.436 944.716l-290.388-96.796v-911.92l290.388 96.796v15.284zM1018.953 960l-285.294-96.796v-906.826l285.294 91.701zM341.381 37.891l341.333-86.607v906.826l-341.333 86.607z" />
<glyph unicode="&#xe92c;" glyph-name="icon-41" d="M1018.88 143.36c0 5.12 5.12 10.24 5.12 20.48v568.32c0 5.12 0 10.24-5.12 20.48l-332.8-286.72 332.8-322.56zM512 394.24l87.040 71.68 46.080 35.84 337.92 286.72c-10.24 5.12-15.36 5.12-20.48 5.12h-901.12c-5.12 0-10.24 0-15.36-5.12l337.92-286.72 46.080-35.84 81.92-71.68zM962.56 102.4c5.12 0 10.24 0 15.36 5.12l-337.92 322.56-128-107.52-128 107.52-337.92-322.56c5.12 0 10.24-5.12 15.36-5.12h901.12zM5.12 752.64c-5.12-10.24-5.12-15.36-5.12-20.48v-568.32c0-5.12 0-15.36 5.12-20.48l332.8 322.56-332.8 286.72z" />
<glyph unicode="&#xe92d;" glyph-name="icon-42" d="M1013.76 709.12c0 0-117.76 153.6-501.76 153.6s-501.76-153.6-501.76-153.6c-5.12-10.24-10.24-25.6-10.24-35.84v-184.32c0-10.24 10.24-15.36 20.48-15.36l215.040 56.32c10.24 0 20.48 10.24 20.48 25.6v76.8c0 10.24 5.12 25.6 15.36 35.84 0 0 51.2 51.2 240.64 51.2s240.64-51.2 240.64-51.2c10.24-5.12 15.36-20.48 15.36-35.84v-66.56c0-10.24 10.24-25.6 20.48-25.6l215.040-66.56c10.24-5.12 20.48 0 20.48 15.36v184.32c0 10.24-5.12 25.6-10.24 35.84zM926.72 299.52l-179.2 168.96c-10.24 10.24-25.6 15.36-40.96 20.48l-25.6 117.76c-5.12 20.48-30.72 40.96-51.2 40.96h-235.52c-25.6 0-46.080-20.48-51.2-40.96l-25.6-112.64c-20.48-10.24-30.72-15.36-40.96-25.6l-179.2-168.96c-15.36-15.36-30.72-46.080-35.84-71.68l-10.24-153.6c0-25.6 15.36-40.96 40.96-40.96h834.56c25.6 0 40.96 20.48 40.96 40.96l-10.24 153.6c0 25.6-15.36 56.32-30.72 71.68zM512 110.080c-112.64 0-204.8 92.16-204.8 204.8s92.16 204.8 204.8 204.8c112.64 0 204.8-92.16 204.8-204.8s-92.16-204.8-204.8-204.8zM645.12 314.88c0-73.52-59.6-133.12-133.12-133.12s-133.12 59.6-133.12 133.12c0 73.52 59.6 133.12 133.12 133.12s133.12-59.6 133.12-133.12z" />
<glyph unicode="&#xe92e;" glyph-name="icon-43" horiz-adv-x="784" d="M673.6 514.56v168.96c0 153.6-122.88 276.48-276.48 276.48 0 0-5.12 0-5.12 0s-5.12 0-5.12 0c-153.6 0-276.48-122.88-276.48-276.48v-168.96h-102.4v-578.56h768v578.56h-102.4zM479.040 43.52h-174.080l40.96 184.32c-25.6 15.36-40.96 40.96-40.96 76.8 0 46.080 40.96 87.040 87.040 87.040s87.040-40.96 87.040-87.040c0-30.72-15.36-61.44-40.96-76.8l40.96-184.32zM535.36 514.56h-286.72v168.96c0 76.8 61.44 138.24 138.24 138.24 0 0 5.12 0 5.12 0s0 0 5.12 0c76.8 0 138.24-61.44 138.24-138.24v-168.96z" />
<glyph unicode="&#xe92f;" glyph-name="icon-44" d="M896 225.28c-61.44 25.6-153.6 97.28-291.84 122.88 35.84 35.84 61.44 97.28 87.040 163.84 15.36 40.96 15.36 71.68 15.36 122.88 0 35.84 5.12 92.16 0 122.88-30.72 107.52-107.52 138.24-194.56 138.24-92.16 0-163.84-30.72-194.56-138.24-10.24-30.72 0-87.040 0-122.88 0-46.080-5.12-81.92 15.36-122.88 25.6-71.68 51.2-128 87.040-163.84-133.12-25.6-225.28-97.28-286.72-122.88-133.12-56.32-133.12-117.76-133.12-117.76v-107.52h1024v107.52c0 0 0 61.44-128 117.76z" />
<glyph unicode="&#xe930;" glyph-name="icon-49" horiz-adv-x="568" d="M568.002 448l-568.004-511.765v1023.531z" />
<glyph unicode="&#xe931;" glyph-name="icon-50" horiz-adv-x="898" d="M107.759 959.861h466.961c8.98 0 22.45-4.49 26.94-8.98l287.361-287.361c4.49-8.98 8.98-17.96 8.98-26.94v0-592.681c0-26.94-13.47-53.88-31.43-76.33v0 0c-17.96-17.96-44.9-31.43-71.84-31.43h-686.971c-26.94 0-53.88 8.98-76.33 31.43v0 0c-17.96 17.96-31.43 44.9-31.43 76.33v812.691c0 26.94 13.47 53.88 31.43 76.33 17.96 13.47 44.9 26.94 76.33 26.94v0zM453.49 762.301v0c8.98 8.98 22.45 8.98 31.43 0s8.98-22.45 0-31.43l-40.41-40.41v-179.6c0-13.47-8.98-22.45-22.45-22.45v0h-260.42c-13.47 0-22.45 8.98-22.45 22.45v0 260.42c0 13.47 8.98 22.45 22.45 22.45v0h255.93c13.47 0 22.45-8.98 22.45-22.45v0-13.47l13.47 4.49zM395.12 641.071v0l-67.35-67.35c-8.98-8.98-22.45-8.98-31.43 0l-80.82 80.82c-8.98 8.98-8.98 22.45 0 31.43s22.45 8.98 31.43 0l62.86-62.86 85.31 85.31v35.92h-211.031v-211.031h211.031v107.76zM161.639 403.1v0 0h255.93c13.47 0 22.45-8.98 22.45-22.45v0-255.93c0-13.47-8.98-22.45-22.45-22.45v0h-255.93c-13.47 0-22.45 8.98-22.45 22.45v0 255.93c0 13.47 8.98 22.45 22.45 22.45v0zM395.12 358.199v0h-211.031v-211.031h211.031v211.031zM817.181 609.64v0h-179.6c-26.94 0-44.9 8.98-62.86 26.94v0c-13.47 17.96-26.94 35.92-26.94 62.86v179.6h-440.020c-8.98 4.49-17.96 0-22.45-4.49s-4.49-13.47-4.49-17.96v-817.182c0-8.98 4.49-13.47 8.98-17.96v0c0-4.49 8.98-8.98 17.96-8.98h686.971c8.98 0 13.47 4.49 17.96 8.98v0c4.49 4.49 8.98 13.47 8.98 17.96v570.231h-4.49zM776.77 659.031v0l-184.090 184.090v-139.19c0-8.98 4.49-22.45 8.98-26.94v0c8.98-8.98 17.96-13.47 31.43-13.47h143.68v-4.49z" />
<glyph unicode="&#xe932;" glyph-name="icon-52" horiz-adv-x="875" d="M210 395.5c-21.875 0-39.376-17.5-39.376-39.376s17.5-39.376 39.376-39.376c21.875 0 39.376 17.5 39.376 39.376s-17.5 39.376-39.376 39.376v0zM210 557.377v0c-17.5 0-35.001-17.5-35.001-39.376s17.5-39.376 35.001-39.376c21.875 0 39.376 17.5 39.376 39.376s-17.5 39.376-39.376 39.376v0zM210 233.625v0c-17.5 0-35.001-17.5-35.001-39.376s17.5-39.376 39.376-39.376c21.875 0 39.376 17.5 39.376 39.376-4.375 21.875-21.875 39.376-43.751 39.376v0zM660.628 216.124v0h-332.502c-13.125 0-21.875-8.75-21.875-21.875s8.75-21.875 21.875-21.875h332.502c13.125 0 21.875 8.75 21.875 21.875s-8.75 21.875-21.875 21.875v0zM660.628 539.876v0h-332.502c-13.125 0-21.875-8.75-21.875-21.875s8.75-21.875 21.875-21.875h332.502c13.125 0 21.875 8.75 21.875 21.875s-8.75 21.875-21.875 21.875v0zM835.63 798.003v0h-105.001v21.875c0 13.125-8.75 21.875-21.875 21.875h-122.501c-8.75 30.625-21.875 56.876-43.751 74.375-26.25 26.25-61.25 43.751-105.001 43.751s-78.75-17.5-105.001-43.751c-21.875-17.5-35.001-43.751-43.751-70h-122.501c-13.125 0-21.875-8.75-21.875-21.875v-21.875h-105.001c-21.875-4.375-39.376-17.5-39.376-39.376v-787.505c0-21.875 17.5-39.376 39.376-39.376h796.255c21.875 0 39.376 17.5 39.376 39.376v787.505c0 21.875-17.5 35.001-39.376 35.001v0zM363.127 881.129v0c17.5 17.5 43.751 30.625 74.375 30.625s56.876-13.125 74.375-30.625c8.75-8.75 17.5-21.875 26.25-39.376h-201.251c8.75 17.5 13.125 30.625 26.25 39.376v0zM188.125 798.003v0h494.379v-74.375h-494.379v74.375zM796.254 14.873v0h-717.505v708.755h65.625v-21.875c0-13.125 8.75-21.875 21.875-21.875h542.503c13.125 0 21.875 8.75 21.875 21.875v21.875h65.625v-708.755zM660.628 378.001v0h-332.502c-13.125 0-21.875-8.75-21.875-21.875s8.75-21.875 21.875-21.875h332.502c13.125 0 21.875 8.75 21.875 21.875s-8.75 21.875-21.875 21.875v0z" />
<glyph unicode="&#xe933;" glyph-name="icon-51" horiz-adv-x="918" d="M41.306 957.496v0h839.98c18.36 0 36.72-18.36 36.72-41.31v0-940.96c0-22.951-18.36-36.72-41.31-36.72v0h-835.389c-22.951 0-41.31 18.36-41.31 36.72v0 940.96c0 22.951 18.36 41.31 41.31 41.31v0zM247.858 879.465v0-867.519h592.117v867.519h-137.702v-569.166c0-13.77-9.18-22.951-22.951-22.951-4.59 0-13.77 4.59-18.36 9.18l-128.521 119.341-128.521-119.341c-9.18-9.18-22.951-9.18-32.13 0-4.59 4.59-4.59 9.18-4.59 13.77v569.166h-119.341zM197.368 11.945v0 867.519h-119.341v-867.519h119.341zM656.373 879.465v0h-247.863v-514.086l105.571 96.391c9.18 9.18 22.951 9.18 32.13 0l105.571-96.391v514.086h4.59z" />
<glyph unicode="&#xe934;" glyph-name="icon-53" horiz-adv-x="1056" d="M190.077 957.524h675.845c52.801 0 100.321-21.12 132.001-52.801 36.96-36.96 58.081-84.481 58.081-137.281v-427.683c0-52.801-21.12-100.321-58.081-132.001-36.96-36.96-84.481-58.081-132.001-58.081h-675.845c-52.801 0-100.321 21.12-132.001 58.081-36.96 31.68-58.081 79.2-58.081 132.001v427.683c0 52.801 21.12 100.321 58.081 137.281 31.68 31.68 79.2 52.801 132.001 52.801v0zM865.921 878.324v0h-675.845c-31.68 0-58.081-15.84-79.2-36.96-15.84-15.84-31.68-42.241-31.68-73.921v-427.683c0-31.68 10.56-58.081 31.68-79.2s47.52-31.68 79.2-31.68h675.845c31.68 0 58.081 10.56 79.2 31.68s31.68 47.52 31.68 79.2v427.683c0 31.68-10.56 58.081-31.68 73.921-21.12 21.12-47.52 36.96-79.2 36.96v0zM42.236 1.837c-15.84 0-26.4 10.56-26.4 26.4s10.56 26.4 26.4 26.4h221.762c15.84 0 26.4-10.56 26.4-26.4s-10.56-26.4-26.4-26.4h-221.762zM427.678 1.837v0c-15.84 0-26.4 10.56-26.4 26.4s10.56 26.4 26.4 26.4h586.085c15.84 0 26.4-10.56 26.4-26.4s-10.56-26.4-26.4-26.4h-586.085zM337.917 117.997c26.4 0 47.52-10.56 63.36-26.4v0c15.84-15.84 26.4-36.96 26.4-63.36s-10.56-47.52-26.4-63.36v0c-15.84-15.84-36.96-26.4-63.36-26.4s-47.52 10.56-63.36 26.4v0c-15.84 15.84-26.4 36.96-26.4 63.36s10.56 47.52 26.4 63.36v0c15.84 15.84 42.241 26.4 63.36 26.4v0zM369.598 54.637v0c-5.28 5.28-15.84 10.56-31.68 10.56-10.56 0-21.12-5.28-31.68-10.56-5.28-5.28-10.56-15.84-10.56-31.68 0-10.56 5.28-21.12 10.56-31.68 5.28-5.28 15.84-10.56 31.68-10.56 10.56 0 21.12 5.28 31.68 10.56 5.28 5.28 10.56 15.84 10.56 31.68 0 10.56 0 26.4-10.56 31.68v0zM718.081 529.841l-359.043-200.641c-5.28-5.28-21.12-5.28-31.68 5.28 0 5.28-5.28 10.56-5.28 10.56v411.843c0 15.84 10.56 26.4 26.4 26.4 5.28 0 10.56 0 15.84-5.28l348.483-200.641c10.56-5.28 15.84-21.12 10.56-31.68 0-10.56 0-10.56-5.28-15.84v0zM517.439 471.761v0l142.561 79.2-142.561 84.481-142.561 79.2v-327.363l142.561 84.481z" />
<glyph unicode="&#xe935;" glyph-name="icon-54" d="M512 957.44c143.36 0 271.36-56.32 363.52-148.48v0c92.16-92.16 148.48-220.16 148.48-358.4 0-56.32-10.24-107.52-25.6-158.72-15.36-46.080-35.84-92.16-66.56-133.12v-179.2c0-20.48-15.36-40.96-40.96-40.96v0h-378.88c-143.36 0-271.36 56.32-363.52 148.48v0 0c-92.16 87.040-148.48 215.040-148.48 358.4s56.32 271.36 148.48 363.52v0c92.16 92.16 220.16 148.48 363.52 148.48v0zM256 547.84v0h512c15.36 0 25.6 10.24 25.6 25.6s-10.24 25.6-25.6 25.6h-512c-15.36 0-25.6-10.24-25.6-25.6 5.12-15.36 15.36-25.6 25.6-25.6v0zM256 419.84v0h512c15.36 0 25.6 10.24 25.6 25.6s-15.36 25.6-25.6 25.6h-512c-15.36 0-25.6-10.24-25.6-25.6s15.36-25.6 25.6-25.6v0zM256 296.96v0h512c15.36 0 25.6 10.24 25.6 25.6s-10.24 25.6-25.6 25.6h-512c-15.36 0-25.6-10.24-25.6-25.6 5.12-15.36 15.36-25.6 25.6-25.6v0zM819.2 752.64v0c-76.8 76.8-189.44 128-307.2 128s-225.28-51.2-307.2-128v0 0c-76.8-76.8-128-184.32-128-307.2 0-117.76 46.080-225.28 128-307.2v0c76.8-76.8 184.32-128 307.2-128h343.040v153.6c0 10.24 0 15.36 10.24 25.6 25.6 35.84 46.080 76.8 61.44 122.88 15.36 40.96 20.48 87.040 20.48 133.12 0 117.76-51.2 225.28-128 307.2v0 0z" />
<glyph unicode="&#xe936;" glyph-name="icon-55" horiz-adv-x="1264" d="M397.853 629.074c-18.732 0-31.22 12.488-31.22 31.22s12.488 31.22 31.22 31.22h268.487c18.732 0 31.22-12.488 31.22-31.22s-12.488-31.22-31.22-31.22h-268.487zM285.462 935.024v0l43.707-43.707 43.707 43.707c6.244 12.488 18.732 18.732 31.22 18.732v0h6.244c12.488 0 24.976-6.244 37.463-18.732l43.707-43.707 43.707 43.707c6.244 12.488 18.732 18.732 31.22 18.732v0h6.244c12.488 0 24.976-6.244 37.463-18.732l43.707-43.707 43.707 43.707c6.244 12.488 18.732 18.732 31.22 18.732v0h6.244c12.488 0 24.976-6.244 37.463-18.732l43.707-43.707 43.707 43.707c6.244 12.488 18.732 18.732 31.22 18.732v0h6.244c12.488 0 24.976-6.244 37.463-18.732l43.707-43.707 43.707 43.707c0 12.488 12.488 18.732 24.976 18.732v0h6.244c12.488 0 24.976-6.244 37.463-18.732l43.707-37.463 43.707 43.707c18.732 18.732 49.951 18.732 68.683 0 6.244-12.488 12.488-24.976 12.488-37.463v0-917.853c0-24.976-18.732-49.951-49.951-49.951v0h-961.561c-24.976 0-43.707 12.488-49.951 37.463l-187.317 624.39c-6.244 24.976 6.244 49.951 31.22 62.439l156.098 43.707v199.805c0 31.22 24.976 49.951 49.951 49.951 12.488 0 24.976-6.244 37.463-18.732v0zM360.389 791.414v0 0 0c-18.732-18.732-43.707-18.732-62.439 0v-755.513h867.902v755.513c-18.732-18.732-49.951-12.488-62.439 0l-49.951 49.951-43.707-43.707c-18.732-18.732-49.951-18.732-68.683 0l-43.707 49.951-43.707-43.707c-18.732-18.732-49.951-18.732-68.683 0l-43.707 49.951-43.707-43.707c-18.732-18.732-49.951-18.732-68.683 0l-62.439 31.22-43.707-49.951c-18.732-18.732-49.951-18.732-68.683 0l-49.951 49.951-43.707-49.951zM198.048 310.634v0 293.463l-81.171-24.976 81.171-268.487zM791.218 691.513v0 0h268.487c18.732 0 31.22-12.488 31.22-31.22v0-305.951c0-18.732-12.488-31.22-31.22-31.22v0h-268.487c-18.732 0-31.22 12.488-31.22 31.22v0 305.951c6.244 12.488 18.732 31.22 31.22 31.22v0zM1034.731 629.074v0h-212.293v-249.757h212.293v249.757zM397.853 529.171v0c-18.732 0-31.22 12.488-31.22 31.22s12.488 31.22 31.22 31.22h268.487c18.732 0 31.22-12.488 31.22-31.22s-12.488-31.22-31.22-31.22h-268.487zM397.853 423.024v0c-18.732 0-31.22 12.488-31.22 31.22s12.488 31.22 31.22 31.22h268.487c12.488 0 31.22-18.732 31.22-31.22 0-18.732-12.488-31.22-31.22-31.22h-268.487zM397.853 323.122v0c-18.732 0-31.22 12.488-31.22 31.22s12.488 31.22 31.22 31.22h268.487c18.732 0 31.22-12.488 31.22-31.22s-12.488-31.22-31.22-31.22h-268.487zM791.218 216.975v0c-18.732 0-31.22 12.488-31.22 31.22s12.488 31.22 31.22 31.22h268.487c18.732 0 31.22-12.488 31.22-31.22s-12.488-31.22-31.22-31.22h-268.487zM397.853 216.975v0c-18.732 0-31.22 12.488-31.22 31.22s12.488 31.22 31.22 31.22h268.487c18.732 0 31.22-12.488 31.22-31.22s-12.488-31.22-31.22-31.22h-268.487zM791.218 117.074v0c-18.732 0-31.22 12.488-31.22 31.22s12.488 31.22 31.22 31.22h268.487c18.732 0 31.22-12.488 31.22-31.22s-12.488-31.22-31.22-31.22h-268.487zM397.853 117.074v0c-18.732 0-31.22 12.488-31.22 31.22s12.488 31.22 31.22 31.22h268.487c18.732 0 31.22-12.488 31.22-31.22s-12.488-31.22-31.22-31.22h-268.487z" />
<glyph unicode="&#xe937;" glyph-name="icon-56" horiz-adv-x="1463" d="M731.5 894.639c-58.099 0-108.936-14.525-159.773-50.838-43.575-29.049-79.887-72.624-101.674-123.461-7.263-21.788-14.525-36.313-14.525-58.099s-7.263-36.313-7.263-58.099c0-58.099 14.525-108.936 50.838-159.773 29.049-43.575 72.624-79.887 123.461-101.674v0c36.313-7.263 72.624-14.525 108.936-14.525s72.624 7.263 108.936 21.788c50.838 21.788 94.412 58.099 130.722 101.674 29.049 43.575 43.575 101.674 43.575 159.773 0 79.887-29.049 152.51-79.887 203.348v0c-50.838 43.575-123.461 79.887-203.348 79.887v0zM63.358-56.736v0c-29.049 0-58.099 21.788-58.099 50.838s29.049 58.099 58.099 58.099h203.348c0 50.838 21.788 101.674 50.838 145.248s72.624 87.148 130.722 101.674v0c14.525 7.263 29.049 14.525 50.838 14.525 14.525 0 21.788 0 36.313 7.263-43.575 21.788-72.624 58.099-94.412 94.412-36.313 58.099-58.099 123.461-58.099 196.085 0 21.788 0 43.575 7.263 72.624 0 14.525 7.263 36.313 14.525 58.099 29.049 65.363 72.624 116.198 130.722 159.773 58.099 36.313 123.461 58.099 196.085 58.099 94.412 0 181.56-36.313 246.923-101.674v0c65.363-65.363 101.674-152.51 101.674-246.923 0-72.624-21.788-137.985-58.099-196.085-21.788-36.313-58.099-72.624-94.412-94.412h7.263c7.263 0 21.788 0 29.049 0s14.525-7.263 21.788-7.263v0c14.525-7.263 21.788-7.263 36.313-14.525v0c7.263 0 14.525-7.263 21.788-14.525v0c7.263-7.263 14.525-7.263 21.788-14.525 36.313-29.049 72.624-58.099 94.412-101.674 21.788-36.313 29.049-79.887 36.313-116.198h203.348c29.049 0 58.099-21.788 58.099-58.099 0-29.049-21.788-58.099-58.099-58.099h-1336.285v7.263zM332.067 52.199v0h791.602c0 29.049-7.263 58.099-21.788 87.148s-43.575 58.099-72.624 79.887c-7.263 7.263-14.525 7.263-21.788 14.525v0c-7.263 0-14.525 7.263-21.788 7.263v0c-7.263 0-14.525 7.263-21.788 7.263v0c-7.263 0-14.525 0-21.788 7.263-7.263 0-14.525 0-21.788 0s-14.525 0-21.788 0h-363.12c-14.525 0-29.049 0-43.575-7.263-14.525 0-29.049-7.263-43.575-14.525-43.575-14.525-72.624-43.575-101.674-79.887 0-29.049-7.263-65.363-14.525-101.674v0z" />
<glyph unicode="&#xe938;" glyph-name="icon-57" horiz-adv-x="1089" d="M46.117 398.978v0h76.255v462.979c0 27.234 10.894 49.021 27.234 65.362 16.34 21.787 43.574 32.681 65.362 32.681h659.064c27.234 0 49.021-10.894 65.362-27.234v0c16.34-16.34 27.234-38.128 27.234-65.362v-462.979h76.255c21.787 0 43.574-21.787 43.574-43.574v0-381.277c0-21.787-16.34-43.574-43.574-43.574v0h-996.766c-21.787 0-43.574 16.34-43.574 43.574v0 381.277c0 16.34 21.787 38.128 43.574 38.128v0zM171.394 398.978v0h119.83c21.787 0 38.128-16.34 38.128-38.128 10.894-49.021 38.128-98.043 76.255-130.723s87.149-54.468 141.617-54.468c54.468 0 103.489 21.787 141.617 54.468s65.362 81.702 76.255 130.723c5.447 21.787 21.787 32.681 43.574 32.681v0h119.83v468.426c0 10.894-5.447 21.787-10.894 32.681v0c-5.447 10.894-16.34 10.894-32.681 10.894h-669.957c-10.894 5.447-21.787 0-32.681-10.894-5.447-5.447-10.894-16.34-10.894-32.681v-462.979zM313.011 616.85v0l168.851-168.851c16.34-16.34 43.574-16.34 59.915 0v0 0l299.574 299.574c16.34 16.34 16.34 43.574 0 59.915s-43.574 16.34-59.915 0l-272.34-272.34-136.17 141.617c-21.787 16.34-43.574 16.34-59.915 0s-16.34-43.574 0-59.915v0zM258.543 317.276v0h-174.298v-299.574h920.511v299.574h-168.851c-16.34-59.915-49.021-108.936-92.596-147.064-54.468-43.574-119.83-70.809-196.085-70.809s-141.617 27.234-196.085 70.809c-43.574 38.128-76.255 87.149-92.596 147.064v0z" />
<glyph unicode="&#xe939;" glyph-name="icon-58" d="M512-64c-280.151 0-512 231.849-512 512s231.849 512 512 512 512-231.849 512-512-231.849-512-512-512zM512 902.038c-251.17 0-454.038-202.868-454.038-454.038s202.868-454.038 454.038-454.038 454.038 202.868 454.038 454.038-202.868 454.038-454.038 454.038zM221.525 198.854l539.943 539.332 40.962-41.008-539.943-539.332-40.962 41.008z" />
<glyph unicode="&#xe93a;" glyph-name="icon-59" d="M822.766 195.821l183.403-183.403c15.284-15.284 15.284-45.851 0-61.134s-45.851-15.284-61.134 0l-178.308 188.497c-35.662-30.567-76.418-56.040-117.174-71.323-56.040-25.473-117.174-35.662-178.308-35.662s-122.269 10.189-178.308 35.662v0c-56.040 25.473-106.985 56.040-152.836 101.891v0c-40.756 40.756-76.418 96.796-101.891 152.836v0c-20.378 50.945-35.662 112.080-35.662 173.214s15.284 122.269 35.662 178.308c25.473 56.040 61.134 106.985 101.891 152.836 81.512 81.512 198.687 132.458 326.050 132.458 61.134 0 122.269-10.189 178.308-35.662v0c56.040-25.473 106.985-56.040 152.836-101.891v0c40.756-40.756 76.418-91.701 96.796-147.741v0c20.378-56.040 35.662-112.080 35.662-173.214s-10.189-122.269-35.662-178.308c-15.284-50.945-40.756-91.701-71.323-127.363v0zM634.269 659.423v0c15.284 15.284 45.851 15.284 61.134 0s15.284-45.851 0-61.134l-270.010-270.010c-15.284-15.284-45.851-15.284-61.134 0v0l-122.269 127.363c-15.284 15.284-15.284 45.851 0 61.134s45.851 15.284 61.134 0l91.701-91.701 239.443 234.348zM613.891 847.92v0c-45.851 20.378-91.701 30.567-142.647 30.567-152.836 0-290.388-91.701-351.522-234.348-20.378-45.851-30.567-96.796-30.567-147.741s10.189-96.796 25.473-142.647v0c20.378-45.851 45.851-86.607 81.512-122.269v0 0c35.662-35.662 76.418-61.134 122.269-81.512v0c45.851-20.378 91.701-30.567 147.741-30.567s101.891 10.189 142.647 30.567c91.701 40.756 168.119 112.080 203.781 203.781 20.378 45.851 30.567 91.701 30.567 142.647s-10.189 96.796-25.473 142.647v0c-20.378 45.851-45.851 86.607-81.512 122.269v0c-35.662 35.662-76.418 66.229-122.269 86.607v0z" />
<glyph unicode="&#xe93b;" glyph-name="icon-60" horiz-adv-x="953" d="M161.785 959.999h530.788c84.55 0 155.009-70.459 155.009-155.009v-183.193c0-84.55-70.459-155.009-155.009-155.009h-352.293l-51.67-98.643c-18.789-32.881-70.459-32.881-84.55 0l-51.67 98.643c-79.853 4.697-145.615 75.156-145.615 155.009v183.193c0 84.55 70.459 155.009 155.009 155.009v0zM692.573 880.147v0h-530.788c-42.275 0-75.156-32.881-75.156-75.156v-183.193c0-42.275 32.881-75.156 75.156-75.156h14.091c18.789 0 32.881-9.395 42.275-23.486l32.881-61.064 32.881 61.064c4.697 14.091 23.486 23.486 37.578 23.486h366.385c42.275 0 75.156 32.881 75.156 75.156v183.193c4.697 42.275-32.881 75.156-70.459 75.156v0zM824.097 330.569v0h-356.99c-23.486 0-46.973-18.789-46.973-46.973v-122.129c0-23.486 18.789-46.973 46.973-46.973h234.863c18.789 0 32.881-9.395 42.275-28.184l14.091-23.486 14.091 23.486c9.395 18.789 23.486 28.184 42.275 28.184h9.395c23.486 0 46.973 18.789 46.973 46.973v126.825c-4.697 23.486-23.486 42.275-46.973 42.275v0zM467.105 410.421v0h356.99c65.761 0 122.129-56.366 122.129-122.129v-126.825c0-65.761-51.67-117.431-112.734-122.129l-32.881-65.761c-18.789-32.881-70.459-37.578-84.55 0l-32.881 61.064h-216.073c-65.761 0-122.129 56.366-122.129 122.129v126.825c-4.697 70.459 51.67 126.825 122.129 126.825v0z" />
<glyph unicode="&#xe93c;" glyph-name="icon-61" d="M1013.228 235.241l-208.995 209.507 189.018 189.018c19.013 19.387 30.748 45.972 30.748 75.297 0 14.394-2.827 28.127-7.956 40.675-22.791 57.165-123.19 134.514-168.78 179.079-19.111 18.358-45.117 29.662-73.763 29.662s-54.652-11.304-73.799-29.696l-191.543-188.471-208.995 209.507c-6.674 6.286-15.692 10.149-25.612 10.149s-18.938-3.863-25.631-10.166l-236.637-235.614c-6.519-6.571-10.548-15.621-10.548-25.612s4.029-19.041 10.55-25.614l208.993-211.042-208.995-208.483c-6.928-6.77-11.235-16.197-11.269-26.631v-242.297c-0.009-0.305-0.014-0.664-0.014-1.024 0-20.652 16.742-37.394 37.394-37.394 0.005 0 0.010 0 0.015 0h241.778c0.621-0.037 1.349-0.059 2.081-0.059 10.191 0 19.417 4.134 26.092 10.815l209.507 209.507 208.483-208.483c6.571-6.519 15.621-10.548 25.612-10.548s19.041 4.029 25.614 10.55l236.142 236.142c6.519 6.571 10.548 15.621 10.548 25.612s-4.029 19.041-10.55 25.614l0.002-0.002zM751.472 877.594v0c5.671 5.349 13.336 8.636 21.77 8.636s16.1-3.288 21.786-8.65l145.973-145.462c5.527-5.782 8.927-13.634 8.927-22.283s-3.402-16.501-8.939-22.295l-66.58-67.092-42.004 40.979-102.449 102.449h-4.098l-41.492 42.004 67.616 67.104zM783.743 647.597v0l-572.688-573.2-72.226 72.739 572.688 572.688c24.588-23.563 48.151-48.151 72.226-72.226v0zM89.653 687.552v0l183.383 182.871 34.32-35.345-64.030-65.567c-3.783-4.094-6.102-9.588-6.102-15.623s2.32-11.529 6.117-15.639c4.059-4.029 9.671-6.528 15.866-6.528s11.807 2.499 15.881 6.545l64.542 65.566 51.224-51.224-32.271-34.833c-4.308-3.948-6.998-9.6-6.998-15.88s2.691-11.932 6.982-15.866c4.007-4.030 9.533-6.514 15.639-6.514s11.633 2.485 15.622 6.499l33.297 32.272 32.784-30.735-182.871-182.871-183.383 182.871zM653.121 779.243v0l27.149-27.661-573.2-572.688-27.661 26.637 573.2 573.2zM75.311 10.878v0 136.769l136.769-136.769h-137.281zM269.963 14.976v0l-27.149 28.173 572.688 572.688 27.149-27.149-573.2-573.712zM751.472 25.733v0l-182.871 183.383 183.383 182.871 35.345-35.345-32.784-32.784c-4.308-3.948-6.998-9.6-6.998-15.88s2.691-11.932 6.982-15.866c4.11-3.797 9.604-6.117 15.639-6.117s11.529 2.32 15.639 6.117l33.792 33.282 51.224-51.224-65.055-66.592c-3.299-3.894-5.304-8.975-5.304-14.524 0-12.448 10.091-22.539 22.539-22.539 5.55 0 10.63 2.005 14.557 5.332l65.022 67.589 31.759-31.759-182.871-182.871z" />
</font>
</defs>
</svg>
